<svg xmlns="http://www.w3.org/2000/svg" xmlns:xlink="http://www.w3.org/1999/xlink" xml:space="preserve" version="1.1" style="shape-rendering:geometricPrecision;text-rendering:geometricPrecision;image-rendering:optimizeQuality;" viewBox="0 0 3.827 3.0825000000000005" x="0px" y="0px" fill-rule="evenodd" clip-rule="evenodd"><g><path class="fil0" d="M0.845 0.378c0.051,-0.113 0.083,-0.112 0.195,-0.12 0.13,-0.01 0.161,-0.035 0.204,0.063l-0.4 0.057zm0.223 0.111c-0.091,0.013 -0.16,0.043 -0.238,0.056 -0.012,-0.15 0.075,-0.158 0.435,-0.175 -0.006,0.135 -0.067,0.1 -0.197,0.119zm0.075 0.214c0.029,0.16 0.088,0.18 -0.097,0.268 -0.144,0.068 -0.17,0.059 -0.293,0.17 -0.128,0.115 -0.431,0.313 -0.606,0.293 0.084,-0.045 0.668,-0.345 0.51,-0.545 -0.09,0.157 -0.045,0.187 -0.212,0.329 -0.139,0.097 -0.281,0.248 -0.381,0.117 -0.04,-0.06 0.053,-0.041 0.142,-0.118 0.084,-0.12 -0.049,-0.117 -0.03,-0.147 0.222,-0.17 0.789,-0.638 1.084,-0.546 0.193,0.066 0.348,0.322 0.245,0.524 -0.058,0.113 -0.203,0.049 -0.244,-0.044 -0.052,-0.117 -0.006,-0.235 -0.119,-0.301zm2.541 -0.194c0.064,0.142 0.165,0.395 0.068,0.517 -0.112,0.142 -0.075,0.301 -0.262,0.436 -0.148,0.106 -0.127,0.346 -0.187,0.512 -0.055,0.152 -0.051,-0.022 -0.094,0.252 -0.018,0.113 -0.044,0.154 -0.167,0.185 -0.019,0.007 -0.013,-0.095 -0.02,-0.143 -0.031,0.056 -0.041,0.153 -0.057,0.155 -0.032,0.004 -0.045,-0.074 -0.067,-0.112 -0.034,0.041 -0.007,0.117 -0.018,0.107 -0.022,-0.023 -0.069,-0.052 -0.057,-0.08 0.095,-0.125 0.128,-0.108 0.135,-0.319 0.007,-0.215 -0.105,-0.157 -0.227,-0.091 -0.376,-0.254 -0.126,-0.097 -0.333,-0.044 -0.176,0.044 -0.18,-0.14 -0.432,0.028l-0.212 -0.143c-0.038,0.064 -0.065,0.142 -0.109,0.203 -0.107,0.149 -0.082,0.011 -0.159,0.146 -0.028,0.049 -0.065,0.159 -0.118,0.199 -0.166,0.123 -0.131,-0.045 -0.143,-0.086 -0.061,0.069 -0.022,0.127 -0.103,0.092 -0.073,-0.043 -0.019,-0.096 0.019,-0.161 -0.092,0.04 -0.049,0.033 -0.11,0.108 -0.033,-0.021 -0.074,-0.107 -0.034,-0.12 0.062,-0.011 0.192,-0.02 0.201,-0.036 0.021,-0.081 0.002,-0.197 -0.006,-0.286 -0.014,-0.158 -0.068,-0.116 -0.127,-0.195 -0.052,-0.07 -0.069,-0.326 -0.154,-0.438l0.304 -0.167c0.257,0.238 0.252,0.074 0.372,-0.061 0.168,-0.021 0.528,0.076 0.784,0.066 0.142,-0.005 0.284,-0.005 0.426,-0.001 0.127,0.004 0.319,0.053 0.418,0.04 0.215,-0.028 0.386,-0.31 0.269,-0.514 -0.062,-0.107 -0.188,-0.158 -0.294,-0.079 -0.152,0.113 -0.024,0.178 -0.034,0.267 -0.251,0.055 -0.296,-0.308 -0.01,-0.445 0.225,-0.108 0.479,-0.093 0.618,0.146l-0.081 0.061zm0.121 -0.043c-0.11,-0.36 -0.685,-0.329 -0.851,-0.055 -0.105,0.173 -0.003,0.448 0.211,0.372 0.131,-0.047 -0.02,-0.089 0.003,-0.2 0.021,-0.1 0.139,-0.121 0.219,-0.077 0.164,0.09 0.098,0.349 -0.041,0.46 -0.169,0.135 -0.335,0.035 -0.548,0.031 -0.488,-0.009 -0.737,-0.003 -1.228,-0.082 -0.028,-0.284 -0.068,-0.269 -0.274,-0.431 0.044,-0.25 -0.061,-0.171 -0.104,-0.318 -0.028,-0.097 -0.041,-0.153 -0.112,-0.162 -0.174,-0.022 -0.126,0.08 -0.144,0.18 -0.027,0.153 -0.17,0.019 -0.151,0.406 -0.158,0.123 -0.741,0.484 -0.777,0.63 -0.056,0.224 0.154,0.305 0.353,0.207 0.171,-0.084 0.29,-0.186 0.43,-0.263 0.129,0.074 0.139,0.136 0.177,0.291 0.105,0.43 0.104,0.163 0.167,0.292 0.021,0.122 0.04,0.232 0.002,0.355 -0.01,0.019 -0.167,-0.008 -0.173,0.026 -0.064,0.222 0.311,0.335 0.453,0.191 0.046,-0.047 0.055,-0.075 0.086,-0.129 0.091,-0.155 0.143,-0.076 0.268,-0.366l0.208 0.133c0.153,-0.098 0.067,-0.106 0.293,-0.047 0.248,0.065 0.146,0.01 0.268,-0.078l0.185 0.149c0.108,-0.042 0.062,-0.076 0.161,-0.048 0.07,0.209 -0.01,0.256 -0.073,0.346 -0.043,0.062 -0.037,0.089 0.028,0.14 0.126,0.1 0.364,0.047 0.409,-0.192 0.031,-0.165 0.079,-0.116 0.109,-0.334 0.011,-0.081 0.052,-0.251 0.098,-0.316 0.185,-0.262 0.459,-0.475 0.342,-0.871 -0.07,-0.234 -0.06,-0.07 0.007,-0.239z"/><path class="fil0" d="M0.823 0.737c-0.048,0.059 -0.032,0.081 0.053,0.066 0.081,-0.028 -0.01,-0.114 -0.053,-0.066z"/></g><text x="0" y="17.466" fill="#000000" font-size="5px" font-weight="bold" font-family="'Helvetica Neue', Helvetica, Arial-Unicode, Arial, Sans-serif">Created by Valeriia Vlasovtseva</text><text x="0" y="22.466" fill="#000000" font-size="5px" font-weight="bold" font-family="'Helvetica Neue', Helvetica, Arial-Unicode, Arial, Sans-serif">from the Noun Project</text></svg>