<svg xmlns="http://www.w3.org/2000/svg" xmlns:xlink="http://www.w3.org/1999/xlink" xml:space="preserve" version="1.1" style="shape-rendering:geometricPrecision;text-rendering:geometricPrecision;image-rendering:optimizeQuality;" viewBox="0 0 7.635 5.583749999999999" x="0px" y="0px" fill-rule="evenodd" clip-rule="evenodd"><g><path class="fil0" d="M2.945 3.207l0.655 -0.07 0.067 0.55 -0.712 0.054c-0.005,-0.228 -0.07,-0.306 -0.009,-0.534zm-0.701 -0.179c0.111,0.031 0.188,0.078 0.295,0.106 0.121,0.032 0.205,0.027 0.323,0.079l0.026 0.497c-0.588,-0.091 -0.682,-0.269 -0.643,-0.682zm1.465 0.071l0.368 -0.242c0.091,0.099 0.334,0.433 0.363,0.549 -0.246,0.177 -0.386,0.22 -0.699,0.241 -0.038,-0.201 -0.076,-0.342 -0.032,-0.549zm-1.194 -0.049c0.003,-0.17 0.138,-0.383 0.184,-0.561l0.32 0.052c0.058,0.163 0.171,0.42 0.214,0.57 -0.327,0.006 -0.396,0.008 -0.718,-0.06zm-0.834 -0.675c0.119,0.167 0.149,0.283 0.314,0.433 0.222,0.202 0.193,0.212 0.19,0.538 -0.337,-0.165 -0.49,-0.6 -0.504,-0.971zm0.748 0.633c-0.2,-0.08 -0.409,-0.223 -0.506,-0.396 0.067,-0.158 0.326,-0.272 0.479,-0.345 0.131,0.122 0.047,0.075 0.238,0.167l-0.211 0.573zm0.914 0.079c-0.132,-0.145 -0.247,-0.375 -0.229,-0.576 0.275,-0.102 0.185,-0.214 0.455,-0.129 0.186,0.059 0.426,0.108 0.58,0.211 -0.101,0.304 -0.481,0.491 -0.806,0.494zm1.171 0.23c-0.122,-0.099 -0.216,-0.247 -0.302,-0.376 -0.092,-0.138 0.002,-0.4 0.077,-0.533l0.592 0.133c-0.033,0.254 -0.171,0.656 -0.367,0.776zm-1.596 -0.857l0.057 -0.227c0.147,0.015 0.179,0.044 0.205,0.18 -0.068,0.054 -0.167,0.075 -0.261,0.047zm-0.033 -0.281c0.02,0.113 0.017,0.135 -0.059,0.226 -0.078,-0.001 -0.147,-0.026 -0.214,-0.088 0.02,-0.027 0.068,-0.084 0.106,-0.12 0.093,-0.087 0.073,-0.076 0.167,-0.019zm1.297 0.324c-0.148,-0.017 -0.606,-0.159 -0.713,-0.241l0.093 -0.273 0.693 0.003 -0.073 0.511zm0.163 -0.683l0.553 0.001c0.039,0.192 0.033,0.471 -0.012,0.647l-0.599 -0.145 0.058 -0.503zm-1.066 0.542c-0.091,-0.077 -0.082,-0.059 -0.113,-0.148 0.151,-0.105 0.044,-0.118 0.261,-0.083 -0.017,0.075 -0.051,0.149 -0.147,0.232zm-0.906 -0.391l0.345 -0.071 0.04 0.161c-0.062,0.082 -0.142,0.169 -0.228,0.204 -0.119,-0.096 -0.122,-0.153 -0.158,-0.294zm0.618 -0.364c0.407,0.019 0.353,0.503 0.089,0.538 -0.289,0.039 -0.403,-0.319 -0.089,-0.538zm-0.62 0.599c-0.193,0.075 -0.347,0.197 -0.491,0.323 -0.161,-0.161 -0.203,-0.475 -0.212,-0.717l0.584 0.054c0.002,0.003 0.003,0.007 0.002,0.015l0.117 0.325zm0.975 -0.169c0.003,-0.094 -0.003,-0.191 0.041,-0.263 0.111,0.006 0.125,-0.015 0.096,0.149 -0.021,0.116 -0.004,0.137 -0.137,0.114zm-0.043 -0.333l0.043 -0.124c0.112,0.054 0.079,0.036 0.068,0.115l-0.111 0.009zm-0.935 0.166c-0.001,-0.334 0.107,-0.363 0.257,-0.607 0.094,0.079 0.052,0.075 0.121,0.181 0.064,0.099 0.075,0.071 0.136,0.142 -0.033,0.062 -0.12,0.191 -0.182,0.231 -0.084,0.055 -0.244,0.081 -0.332,0.052zm1.669 -0.738c0.21,0.191 0.211,0.498 0.222,0.78l-0.688 0c-0.057,-0.311 -0.111,-0.26 0.075,-0.474 0.109,-0.126 0.235,-0.269 0.392,-0.306zm-1.774 0.657c-0.766,0.044 -0.677,-0.147 -0.392,-1.001 0.203,0.146 0.358,0.409 0.614,0.517l-0.223 0.484zm0.468 -0.574c0.084,-0.119 0.208,-0.194 0.354,-0.224l0.11 0.463c-0.29,0.136 -0.387,0.043 -0.464,-0.239zm1.506 -0.007l0.455 -0.259c0.182,0.196 0.203,0.537 0.208,0.786l-0.58 0.012 -0.083 -0.538zm-0.945 0.266c-0.057,-0.122 -0.137,-0.394 -0.086,-0.511 0.199,-0.042 0.544,-0.001 0.729,0.101 -0.098,0.1 -0.186,0.147 -0.289,0.267 -0.155,0.18 -0.114,0.227 -0.354,0.143zm2.692 -0.136c0.115,-0.3 0.922,-0.212 0.925,0.039l-0.091 0.003c-0.111,0.002 -0.154,-0.059 -0.385,-0.069 -0.17,-0.007 -0.309,0.03 -0.449,0.027zm-3.408 -1.154c0.078,0.317 0.213,0.578 0.275,0.818l-0.331 0.271c-0.176,-0.1 -0.584,-0.404 -0.561,-0.59 0.028,-0.222 0.434,-0.421 0.617,-0.499zm3.497 0.933c0.149,-0.21 0.679,-0.223 0.802,0.058 -0.349,-0.102 -0.451,-0.094 -0.802,-0.058zm-1.88 0.052l-0.311 -0.235c-0.003,-0.223 -0.015,-0.433 0.132,-0.625 0.261,-0.041 0.573,0.324 0.651,0.557l-0.472 0.303zm3.107 3.143c-0.327,0.073 -1.246,-0.144 -1.767,-0.03 -1.074,0.236 -4.6,0.045 -5.356,-0.32 -0.11,-0.053 -0.15,-0.077 -0.003,-0.08 0.255,-0.004 0.862,0.065 1.013,0.065 0.267,0 0.718,-0.086 1.012,-0.114 0.637,-0.061 1.479,0.012 2.061,-0.191 0.72,-0.25 1.029,-0.463 1.214,-1.235 0.056,-0.233 0.206,-0.886 0.124,-1.083 -0.089,-0.213 -0.424,-0.666 -0.189,-0.717 0.086,-0.018 0.174,0.443 0.353,0.672 0.262,0.356 0.325,0.057 0.784,0.132 0.407,0.066 0.431,0.235 0.693,-0.211 0.188,-0.286 0.078,-0.173 0.126,-0.399 0.04,-0.189 0.269,-0.11 0.18,0.143 -0.201,0.452 -0.432,0.346 -0.524,1.66 -0.016,0.226 -0.011,0.716 0.013,0.938 0.034,0.303 0.292,0.634 0.265,0.77zm-4.608 -4.165c0.158,-0.07 0.366,-0.081 0.539,-0.056 0.009,0.236 -0.085,0.577 0.063,0.771l-0.365 0.094c-0.141,-0.176 -0.305,-0.577 -0.237,-0.809zm3.72 0.201c0.359,-0.159 0.415,0.375 0.148,0.483 -0.312,0.126 -0.482,-0.335 -0.148,-0.483zm-2.617 0.557c-0.287,0.014 -0.409,-0.003 -0.488,-0.208 -0.054,-0.14 -0.028,-0.453 0.022,-0.591 0.159,-0.001 0.486,0.058 0.607,0.144 -0.035,0.133 -0.078,0.142 -0.104,0.307 -0.018,0.115 -0.019,0.231 -0.037,0.348zm2.436 0.018l-0.416 0.34c-0.032,-0.09 -0.163,-0.251 -0.229,-0.394 -0.063,-0.138 -0.067,-0.487 -0.304,-0.292 -0.189,0.156 0.281,0.649 0.264,0.97 -0.032,0.608 -0.27,1.812 -1.014,1.89 1.018,-1.326 0.401,-3.696 -1.651,-3.417 -0.917,0.125 -1.27,0.933 -1.286,1.771 -0.022,1.112 0.06,1.302 0.954,1.918 -0.142,0.088 -0.937,0.128 -1.184,0.168 -0.229,0.037 -0.943,-0.07 -1.244,-0.067 -0.103,0.001 -0.168,0.017 -0.086,0.136 0.113,0.163 0.509,0.197 0.69,0.229 1.467,0.262 1.513,0.212 2.972,0.282 0.508,0.024 1.302,-0.006 1.797,-0.114 0.513,-0.112 1.544,0.107 1.852,0.03 0.114,-0.189 -0.162,-0.437 -0.234,-0.776 -0.1,-0.475 0.024,-1.693 0.2,-2.128 0.165,-0.406 0.396,-0.36 0.295,-0.797 -0.092,-0.218 -0.263,-0.026 -0.274,0.045l-0.208 0.591 -0.404 -0.448c0.251,-0.314 0.077,-0.662 -0.288,-0.623 -0.501,0.053 -0.259,0.518 -0.202,0.688z"/><path class="fil0" d="M5.82 2.079c0.373,0.033 0.295,0.14 0.552,0.161 0.208,0.022 0.434,-0.036 0.548,-0.093 -0.07,-0.174 -0.243,0.092 -0.6,0.016 -0.167,-0.035 -0.474,-0.31 -0.499,-0.083z"/><path class="fil0" d="M2.994 1.946c-0.061,-0.08 -0.023,-0.115 0.07,-0.124 0.139,-0.005 0.067,0.227 -0.07,0.124zm-0.062 0.051c0.157,0.115 0.258,0.027 0.262,-0.158 0.003,-0.042 -0.062,-0.088 -0.121,-0.093 -0.146,-0.026 -0.242,0.131 -0.141,0.252z"/><path class="fil0" d="M6.861 1.79c-0.086,-0.118 -0.098,-0.118 -0.232,-0.059 0.078,0.125 0.091,0.131 0.232,0.059z"/><path class="fil0" d="M5.996 1.729c0.117,0.078 0.139,0.075 0.193,-0.05 -0.093,-0.072 -0.147,-0.092 -0.193,0.05z"/></g><text x="0" y="19.467" fill="#000000" font-size="5px" font-weight="bold" font-family="'Helvetica Neue', Helvetica, Arial-Unicode, Arial, Sans-serif">Created by Valeriia Vlasovtseva</text><text x="0" y="24.467" fill="#000000" font-size="5px" font-weight="bold" font-family="'Helvetica Neue', Helvetica, Arial-Unicode, Arial, Sans-serif">from the Noun Project</text></svg>