<svg xmlns="http://www.w3.org/2000/svg" xmlns:xlink="http://www.w3.org/1999/xlink" xml:space="preserve" version="1.1" style="shape-rendering:geometricPrecision;text-rendering:geometricPrecision;image-rendering:optimizeQuality;" viewBox="0 0 13.605 8.915" x="0px" y="0px" fill-rule="evenodd" clip-rule="evenodd"><g><path class="fil0" d="M6.228 5.837c0.529,0.024 0.924,0.004 1.174,0.523 -0.096,-0.041 -0.175,-0.079 -0.1,0.039 0.1,0.169 0.16,0.123 0.062,0.277 -0.203,-0.091 -0.145,-0.176 -0.304,-0.266 -0.01,0.186 0.128,0.189 0.178,0.366 -0.5,-0.016 -0.92,-0.674 -1.01,-0.939zm-2.54 0.947l0.067 -0.386c-0.151,0.096 -0.138,0.248 -0.167,0.413 -0.388,-0.1 -0.012,-0.386 -0.106,-0.589 -0.128,0.095 -0.075,0.203 -0.171,0.358 -0.161,-0.583 0.453,-0.778 0.9,-0.825 0.734,-0.076 0.817,-0.76 1.104,-0.684 0.267,0.071 0.108,0.507 -0.039,0.632 -0.124,0.105 -0.414,0.183 -0.576,0.294 -0.368,0.251 -0.682,0.877 -1.012,0.786zm2.948 -2.414l2.121 0.05 0.089 1.428c-0.63,-0.026 -1.243,-0.03 -1.856,-0.056 -0.51,-0.021 -0.548,0.064 -0.494,-0.449 0.032,-0.306 0.074,-0.676 0.14,-0.973zm2.514 2.609c0.09,-0.144 0.32,-0.27 0.242,-0.438l-0.396 0.477c-0.119,-0.004 -0.205,-0.081 -0.237,-0.139l0.35 -0.381c-0.174,-0.019 -0.289,0.153 -0.419,0.258 0.053,-0.355 0.492,-0.354 0.745,-0.541 0.355,-0.262 0.416,-0.413 0.931,-0.383 -0.316,0.477 -0.718,1.14 -1.216,1.147zm-8.678 -1.97c0,-0.243 0.718,-1.404 1.406,-0.807 0.316,0.212 0.866,0.545 1.931,0.437 0.342,0.726 -2.391,0.878 -3.066,0.618 0.416,-0.015 0.581,0.008 0.971,-0.187 0.254,-0.127 0.703,-0.34 0.416,-0.595 -0.294,0.1 -0.834,1.039 -1.658,0.534zm13.032 1.35c-0.159,-0.075 -0.226,-0.22 -0.383,-0.177 0.1,0.137 0.291,0.152 0.35,0.332l-0.182 0.185c-0.189,-0.17 -0.186,-0.245 -0.44,-0.354l0.348 0.388c-0.748,0.285 -0.914,-0.494 -1.797,-1.003 -0.23,-0.132 -0.631,-0.201 -0.761,-0.306 0.069,-0.296 0.44,-0.183 0.639,-0.017 1.042,0.869 2.239,0.192 2.226,0.952zm-9.005 -0.923l-0.135 -0.001c0.108,-0.283 0.12,-0.442 0.277,-0.736 0.103,-0.193 0.273,-0.432 0.418,-0.602l1.46 0.271 -0.166 1.383 -0.682 -0.064c1.048,-1.302 -1.335,-1.466 -1.172,-0.251zm-0.227 -0.02l-0.43 -0.181c0.046,-0.194 0.137,-0.291 0.1,-0.497 -0.05,-0.274 -0.138,-0.211 -0.235,-0.376l0.39 -0.591 0.85 0.296c-0.299,0.544 -0.522,0.655 -0.674,1.349zm-3.221 -1.919c0.126,-0.103 0.818,-0.181 0.987,-0.156 -0,0.222 -0.203,0.186 -0.417,0.195 -0.163,0.007 -0.47,0.053 -0.57,-0.039zm7.807 0.913l1.814 -0.322c0.161,0.231 0.322,0.462 0.483,0.693 0.01,0.016 -0.016,0.032 -0.034,0.022 -0.743,-0.159 -0.92,0.291 -0.873,0.93l-1.317 0.12 -0.074 -1.442zm-8.713 -0.659c0.295,-0.113 1.386,-0.112 1.787,-0.164 0.186,-0.024 0.242,0.013 0.407,-0.006 0.197,-0.023 0.391,-0.177 0.589,-0.166 0.074,0.004 0.09,0.002 0.067,0.073 -0.116,0.365 -0.991,0.504 -1.345,0.418 -0.474,-0.115 -0.421,0.02 -0.791,0.094 -0.221,0.044 -0.643,0.065 -0.756,-0.161 -0.029,-0.058 -0.02,-0.064 0.041,-0.088zm6.508 0.563l0.177 -0.978 1.638 -0.055 0.285 1.016 -0.033 0.043 -2.067 -0.026zm-5.573 -0.981c0.039,-0.36 0.128,-0.478 0.405,-0.493 0.283,-0.015 0.527,0.061 0.534,0.359 -0.128,0.102 -0.761,0.164 -0.938,0.135zm10.689 1.479l-0.002 -0.221c0.339,-0.217 0.66,-0.095 1.024,-0.074 -0.166,0.034 -0.357,0.056 -0.536,0.103 -0.166,0.044 -0.397,0.187 -0.486,0.192zm-5.222 -0.551l-1.416 -0.242c0.16,-0.242 0.383,-0.48 0.592,-0.657 0.304,-0.258 0.604,-0.103 1.022,-0.058l-0.198 0.958zm4.252 -0.22l0.457 -0.215c0.251,0.287 0.591,0.942 0.344,1.307 -0.067,0.1 -0.087,0.092 -0.155,0.111 -0.123,-0.478 -0.418,-0.816 -0.647,-1.203zm-5.787 -0.065l-0.819 -0.274c0.958,-0.88 0.776,-0.705 1.591,-0.522l-0.772 0.796zm3.569 -0.71c1.549,-0.11 0.771,-0.374 1.993,0.694 -0.193,0.16 -1.456,0.358 -1.746,0.323l-0.247 -1.017zm-1.684 -0.021l0.399 -0.861c0.305,-0.071 0.581,-0.027 0.76,0.193 0.09,0.111 0.308,0.479 0.346,0.626l-1.505 0.042zm4.261 0.494c-0.111,0.11 -0.307,0.2 -0.47,0.211 -0.315,-0.288 -0.601,-0.578 -0.935,-0.868 0.27,-0.218 0.464,-0.001 0.741,0.149 0.169,0.092 0.577,0.353 0.663,0.508zm-5.254 -0.642l-0.639 -0.144c0.327,-0.219 1.223,-0.536 1.596,-0.531 -0.182,0.194 -0.687,0.432 -0.957,0.674zm0.876 0.112l-0.734 -0.084c0.16,-0.218 0.334,-0.276 0.547,-0.407 0.199,-0.122 0.366,-0.323 0.605,-0.333l-0.418 0.824zm1.73 -0.043c-0.056,-0.119 -0.411,-0.722 -0.413,-0.742 0.219,0.007 1.229,0.466 1.348,0.627 -0.214,0.05 -0.731,0.133 -0.935,0.115zm1.335 -0.254c-0.256,0.164 -0.384,-0.004 -0.619,-0.126 -0.183,-0.095 -0.41,-0.208 -0.595,-0.287 0.169,0.013 1.092,0.32 1.214,0.413zm-5.409 -1.168c0.049,-0.293 0.214,-0.728 0.324,-0.907 0.005,0.216 -0.012,0.76 -0.192,0.963 -0.112,0.126 -0.158,0.102 -0.132,-0.056zm-0.599 -0.1c-0,-0.299 0.305,-0.652 0.509,-0.815 0.121,-0.096 0.158,-0.177 0.277,-0.136 0.05,0.272 -0.267,0.947 -0.596,1.089 -0.15,0.065 -0.189,0.016 -0.19,-0.138zm0.689 -1.144c-0.134,0.162 -0.504,0.21 -0.711,0.309 -1.155,0.545 -0.668,-0.496 0.384,-0.512 0.23,-0.003 0.249,-0.01 0.328,0.203zm0.344 0.024c-0.177,-0.006 -0.208,-0.196 -0.229,-0.363 0.157,0.062 0.208,0.196 0.229,0.363zm-1.545 -0.317c0.242,-0.185 0.753,-0.113 1.026,-0.074 -0.169,0.117 -0.192,0.037 -0.565,0.121 -0.17,0.038 -0.267,0.047 -0.407,0.045 -0.109,-0.002 -0.19,0.012 -0.055,-0.091zm-1.134 2.963l-0.041 0.089c-0.02,0.028 -0.034,-0.028 -0.036,-0.069 0.001,-0.387 -0.388,-0.47 -0.714,-0.425 -0.426,0.06 -0.36,0.468 -0.487,0.796 -0.241,0.056 -0.874,-0.006 -0.909,0.172 -0.05,0.345 0.438,0.375 0.688,0.374l-0.281 0.278c0.005,0.239 0.078,0.147 0.071,0.303 -0.007,0.168 -0.095,0.098 -0.114,0.331 0.229,0.522 1.139,0.519 1.627,0.482 1.239,-0.126 1.089,-0.218 1.648,-0.37 0.474,0.487 0.626,0.278 0.884,0.447 -0.31,0.1 -0.745,0.101 -0.976,0.261 -0.275,0.191 -0.505,0.614 -0.232,0.904 0.557,0.591 1.023,-0.461 1.584,-0.75 1.165,-0.6 1.072,-0.074 1.635,0.52 0.198,0.209 0.59,0.542 0.867,0.263 0.345,-0.347 -0.066,-0.639 -0.237,-0.883l2.509 0.033c-0.269,0.364 -0.887,0.313 -1.049,0.718 -0.057,0.142 -0.046,0.174 0.049,0.285 0.538,0.628 1.235,-0.359 1.542,-0.773 1.017,-1.368 1.799,0.638 2.639,0.74 0.368,0.045 0.809,-0.238 0.741,-0.644 -0.106,-0.635 -1.447,-0.26 -2.16,-0.853 0.403,-0.27 0.198,-0.499 0.816,-0.686 0.338,-0.102 0.905,-0.063 1.121,-0.371 -0.302,0.01 -0.418,0.126 -0.81,0.077 -0.563,-0.071 -0.382,-0.046 -0.858,0.09 -0.3,-1.497 -3.001,-2.238 -4.288,-2.218 -1.281,0.019 -2.297,0.483 -3.222,1.288 -0.361,0.325 -0.665,1.019 -0.755,0.992 -0.634,-0.137 -1.366,-0.448 -1.256,-0.524l0.071 -0.065c0.31,-0.043 0.941,-0.32 0.824,-0.639 -0.044,-0.074 -0.951,0.214 -0.925,0.141l0.528 -1.194c0.239,0.072 0.748,0.378 0.935,-0.074l-0.783 -0.09c0.12,-0.293 0.94,-1.012 1.198,-1.137 -0.17,0.294 -0.315,0.411 -0.286,0.724 0.014,0.152 0.021,0.183 0.192,0.18 0.141,-0.002 0.231,-0.083 0.359,-0.197 0.053,0.127 0.023,0.417 0.291,0.225 0.189,-0.136 0.182,-0.414 0.211,-0.626 0.06,-0.438 0.261,-0.791 0.007,-1.114 -0.051,-0.065 -0.067,-0.085 -0.191,-0.107 -0.327,-0.056 -1.205,-0.173 -1.413,0.108 -0.175,0.237 0.141,0.168 0.249,0.229 -0.209,0.111 -0.463,0.25 -0.362,0.541 0.243,0.274 0.704,-0.074 0.988,-0.136l-1.276 1.115c0.003,-0.269 -0.076,-0.626 -0.335,-0.77 -0.153,0.131 -0.259,0.419 -0.237,0.634 0.032,0.308 0.286,0.281 0.418,0.448l-0.459 0.926z"/><path class="fil0" d="M1.436 4.647c0.186,0.007 0.274,-0.183 0.065,-0.233 -0.123,0.065 -0.133,0.085 -0.113,0.182 0.007,0.035 0.022,0.05 0.048,0.05z"/><path class="fil0" d="M0.933 4.607c0.117,-0.004 0.164,-0.086 0.144,-0.219 -0.133,-0.011 -0.173,0.054 -0.187,0.162 -0.004,0.031 -0.002,0.058 0.042,0.057z"/></g><text x="0" y="22.131999999999998" fill="#000000" font-size="5px" font-weight="bold" font-family="'Helvetica Neue', Helvetica, Arial-Unicode, Arial, Sans-serif">Created by Valeriia Vlasovtseva</text><text x="0" y="27.131999999999998" fill="#000000" font-size="5px" font-weight="bold" font-family="'Helvetica Neue', Helvetica, Arial-Unicode, Arial, Sans-serif">from the Noun Project</text></svg>