<svg xmlns="http://www.w3.org/2000/svg" xmlns:xlink="http://www.w3.org/1999/xlink" xml:space="preserve" version="1.1" style="shape-rendering:geometricPrecision;text-rendering:geometricPrecision;image-rendering:optimizeQuality;" viewBox="0 0 43.677 23.89875" x="0px" y="0px" fill-rule="evenodd" clip-rule="evenodd"><g><path class="fil0" d="M7.931 16.638c-0.041,0.625 -0.302,1.269 -0.737,1.635 -0.396,0.333 -0.761,0.222 -0.859,-0.212 -0.086,-0.381 -0.04,-0.897 0.207,-1.459 0.076,-0.009 0.772,0.409 1.388,0.037zm1.263 -3.406c-0.142,0.278 -0.385,0.902 -0.487,1.14 -0.249,0.739 -0.681,0.067 -0.857,0.708 -0.034,0.153 0.596,-0.211 0.611,-0.065 -0.024,0.655 -0.172,1.001 -0.399,0.953l-1.446 -0.066 0.109 -2.229c0.686,0.047 1.755,0.174 2.225,-0.441 -0.475,-0.576 -1.137,-0.383 -1.932,-0.447 -0.661,0.009 -0.464,-0.436 -0.968,-0.914 -0.353,-0.334 -0.565,-0.338 -0.98,-0.05 -0.336,0.233 -0.358,0.567 -0.588,1.153 -0.722,1.843 -0.13,-0.14 -1.459,1.075 -0.174,0.156 1.146,0.305 1.09,0.531 -0.189,1.389 -1.223,3.418 -2.675,3.665 -0.725,0.123 -1.334,-0.071 -0.787,-0.866 0.167,-0.243 0.422,-0.442 0.711,-0.591 1.059,-0.549 0.98,0.652 1.672,-0.268 0.115,-0.932 -1.069,-0.266 -0.476,-3.043 0.287,-1.345 0.365,-2.699 0.599,-4.067 0.623,0.713 0.749,1.884 2.203,1.219 -0.224,-0.429 -1.529,-1.346 -1.915,-1.88 -0.494,-0.683 -0.483,-2.544 -0.566,-3.636 -0.067,-0.876 -0.335,-2.943 0.068,-3.668 0.984,-1.772 1.65,1.009 1.918,1.179 0.41,0.248 -0.324,-1.083 0.688,-1.265 0.535,-0.096 0.445,0.032 0.496,0.48l0.162 1.405c0.063,0.549 0.235,0.335 0.316,0.015 0.236,-0.938 0.419,-2.578 1.5,-2.771 0.464,-0.083 0.713,0.109 0.806,0.579 0.165,0.827 -0.416,1.985 3.563,4.015 0.418,0.212 0.026,4.183 -0.129,4.996 0.957,-0.459 1.119,-3.914 1.122,-4.904l2.72 0.264c0.35,0.19 -0.034,2.622 0.382,1.831 0.22,-0.431 0.237,-1.219 0.355,-1.828 0.614,0.014 2.852,-0.066 3.25,0.184 0.271,0.588 0.15,2.014 0.225,3.021 0.121,0.326 0.8,-0.841 0.814,-2.348 0.004,-0.465 -0.14,-0.55 0.429,-0.552l4.23 0.221c0.701,0.425 -0.672,2.539 -0.59,3.823 0.036,0.562 0.238,1.037 0.493,0.19l0.975 -3.241c0.151,-0.526 0.114,-0.873 1.039,-0.811 2.195,0.145 4.796,2.279 6.084,3.696 -0.753,0.456 -0.909,0.749 -1.196,1.742 -0.45,1.555 -0.575,0.643 -1.156,1.879 -0.401,0.853 -0.579,2.758 -1.035,3.867 -0.597,1.451 -0.913,0.348 -0.976,-0.08 -0.158,-1.086 1.343,-0.755 0.917,-1.901 -0.158,-0.372 -0.917,1.031 -1.062,0.436l-0.33 -1.503c-0.211,-0.964 -0.679,-0.783 -1.235,-0.039 -0.402,0.538 -0.61,1.295 -0.754,1.715 -0.708,-0.003 -2.018,0.371 -2.125,-0.009 0.257,-2.496 0.043,-2.662 -1.553,-4.243 -0.237,-0.347 1.05,-3.347 -0.234,-3.796 -0.332,-0.134 0.234,3.796 -0.871,3.789l-4.393 0.07c-0.258,-0.034 -0.282,-0.19 -0.186,-0.357 0.758,-1.314 1.54,-3.193 0.976,-4.487 -0.499,-0.821 -0.199,1.686 -0.799,2.967 -0.162,0.479 -0.789,1.797 -1.081,1.846 -0.694,-0.057 -2.043,0.068 -2.108,-0.548 -0.097,-1.409 0.044,-3.753 -0.29,-4.226 -0.313,1.491 -0.347,4.351 -0.94,4.472 -2.415,0.365 -3.689,1.022 -4.172,2.016zm14.907 5.055c-0.282,-0.524 -0.088,-0.757 0.197,-1.492 0.444,-0.055 1.773,-0.104 2.283,-0.202 -0.231,0.66 -0.688,1.379 -1.302,1.78 -0.529,0.345 -0.946,0.347 -1.178,-0.086zm13.65 -3.44c2.091,1.513 3.788,-1.513 4.909,-2.329 0.723,-0.526 0.78,0.364 0.654,0.869 -0.196,0.783 -0.905,1.613 -1.272,2.06 -0.277,-0.293 0.013,-0.697 -0.888,-0.761 -0.639,1.023 0.164,0.725 0.226,1.367 -0.511,0.332 -0.931,0.622 -1.784,0.892 -0.207,-0.458 0.291,-0.553 -1.009,-1.405 -0.164,0.518 -0.371,1.128 -0.305,1.66 -2.15,0.225 -3.07,-0.432 -3.537,-2.534 1.876,-1.39 0.976,-1.698 -0.502,-1.22 -0.217,-0.384 -0.469,-0.73 -0.777,-1.027 -0.224,-0.87 0.391,-1.573 0.586,-2.359 1.079,1.341 1.542,2.684 2.795,4.019 -0.705,0.745 -0.688,1.242 -0.601,2.233 1.055,-0.147 1.016,-0.985 1.504,-1.466zm-9.021 -0.429c0.21,0.914 0.009,2.086 0.275,2.971 0.393,1.308 1.22,1.016 1.691,-0.06 0.618,-1.411 0.405,-3.824 1.688,-4.651 2.687,-0.136 1.129,5.08 5.172,4.959 2.415,-0.073 5.744,-1.714 6.062,-4.327 0.559,-4.591 -2.947,2.63 -5.606,1.283 -1.939,-0.982 -3.006,-4.418 -4.472,-5.873 -1.856,-1.841 -4.46,-3.117 -7.071,-3.292 -3.036,-0.203 -6.93,-0.372 -9.958,-0.365 -2.154,0.005 -6.683,-0.431 -7.229,-3.103 -0.481,-2.356 -0.258,-2.405 -2.224,-1.116 -0.598,0.392 -1.746,0.266 -2.814,-0.008 -0.482,-0.123 -1.093,-0.356 -1.429,0.147 -0.904,1.648 0.183,7.004 -0.188,9.716 -0.183,1.332 -0.408,3.261 -0.786,4.518 -0.408,1.298 -1.474,1.578 -1.754,2.226 -0.362,0.839 0.474,1.335 1.224,1.347 2.144,0.035 3.026,-4.288 3.702,-6.108 0.297,-0.799 0.588,-1.047 1.127,-0.144 0.936,1.57 -0.672,5.031 0.036,6.057 1.742,1.373 2.556,-3.661 3.129,-4.945 1.075,-2.409 4.367,-1.969 6.454,-1.825 1.971,0.136 6.778,-0.434 8.01,0.655 2.512,2.22 -1.364,4.832 0.29,6.498 2.107,0.922 2.874,-2.967 3.83,-4.564 0.406,-0.678 0.644,-0.858 0.841,0.003z"/><path class="fil0" d="M29.294 6.799c-0.497,0.416 -0.732,1.858 -1.124,2.6 -0.46,0.871 -0.156,0.753 -0.296,1.63 -0.096,0.604 -1.199,1.794 -0.084,1.149 0.667,-0.386 1.055,-1.087 1.212,-1.932 0.172,-0.926 0.806,-2.706 0.293,-3.448z"/><path class="fil0" d="M29.25 13.77c0.212,0.312 0.829,0.076 1.356,-0.426 0.48,-0.457 0.752,-0.568 0.885,-1.274 -1.257,-0.536 -2.357,1.008 -2.241,1.701z"/><path class="fil0" d="M6.677 10.147c0.381,0.833 1.823,0.638 1.924,-0.546 -0.974,-0.032 -1.25,-0.067 -1.924,0.546z"/><path class="fil0" d="M7.071 5.335c-0.224,0.45 -0.268,0.618 -0.895,0.686 -0.249,0.062 0.122,-0.583 -0.23,-0.663 -0.077,-0.018 -0.287,-0.01 -0.35,0.042 -0.205,0.262 0.136,0.705 -0.096,0.695 -0.741,0.047 -0.693,-0.469 -1.126,-0.371 0.079,1.242 3.484,0.748 2.697,-0.389z"/><path class="fil0" d="M10.224 11.553c0.945,-0.082 1.014,-0.765 0.786,-1.542 -0.657,0.211 -0.868,0.879 -0.786,1.542z"/><path class="fil0" d="M25.769 14.343c0.222,0.36 0.937,0.473 1.325,-0.061 -0.398,-0.514 -1.194,-0.47 -1.325,0.061z"/><path class="fil0" d="M3.498 12.388c-0.352,0.225 -0.189,0.223 0.304,0.372 0.681,0.213 0.717,0.118 0.532,-0.168 -0.386,-0.488 -0.248,-0.574 -0.836,-0.204z"/><path class="fil0" d="M3.167 2.002c0.613,0.013 0.434,0.046 0.933,-0.321 -0.442,-0.64 -0.822,-0.364 -0.933,0.321z"/><path class="fil0" d="M7.725 1.186c-0.358,0.44 -0.166,0.451 0.241,0.545 0.534,0.137 0.669,-0.253 0.395,-0.578 -0.31,-0.368 -0.396,-0.263 -0.637,0.033z"/><path class="fil0" d="M5.317 6.815c0.455,0.386 0.765,0.253 1.19,0.021 -0.528,-0.275 -0.733,-0.293 -1.19,-0.021z"/><path class="fil0" d="M4.573 4.351c0.093,0.187 0.315,0.371 0.633,0.152 0.08,-0.528 -0.426,-0.7 -0.633,-0.152z"/><path class="fil0" d="M6.774 4.308c-0.093,0.187 -0.315,0.371 -0.633,0.152 -0.08,-0.528 0.426,-0.7 0.633,-0.152z"/></g><text x="0" y="34.119" fill="#000000" font-size="5px" font-weight="bold" font-family="'Helvetica Neue', Helvetica, Arial-Unicode, Arial, Sans-serif">Created by Valeriia Vlasovtseva</text><text x="0" y="39.119" fill="#000000" font-size="5px" font-weight="bold" font-family="'Helvetica Neue', Helvetica, Arial-Unicode, Arial, Sans-serif">from the Noun Project</text></svg>