<svg xmlns="http://www.w3.org/2000/svg" xmlns:xlink="http://www.w3.org/1999/xlink" xml:space="preserve" version="1.1" style="shape-rendering:geometricPrecision;text-rendering:geometricPrecision;image-rendering:optimizeQuality;" viewBox="0 0 106.383 96.97874999999999" x="0px" y="0px" fill-rule="evenodd" clip-rule="evenodd"><g><path class="fil0" d="M72.323 62.963c0.017,-0.542 4.847,-0.045 4.533,0.212 -0.082,0.608 -1.114,1.168 -0.836,1.284 0.952,0.125 2.887,0.053 2.855,0.374 -0.519,0.971 -1.98,1.198 -2.98,1.909 -0.045,0.584 2.846,0.851 2.086,1.597 -1.558,0.862 -4.15,-0.02 -5.945,-0.632l0.287 -4.745zm-1.178 -0.661c-2.512,-3.136 -1.747,-19.629 6.315,-23.807 -2.623,6.563 -5.342,22.748 -6.315,23.807zm26.784 -23.982c-2.1,0.432 -3.939,0.413 -5.063,-1.506 1.896,-0.506 0.886,0.147 2.528,0.935 1.44,-0.294 2.324,-1.546 2.535,0.571zm-3.442 -4.505c2.749,2.721 1.888,1.655 3.635,1.215 1.266,-0.319 1.179,-0.121 1.944,0.773l0.825 0.964 -1.99 1.054c-1.642,-1.972 -1.258,-1.268 -3.53,-0.678 -1.159,-1.679 -1.871,-0.735 -2.888,-1.329 -0.447,-1.888 0.415,-1.303 2.003,-1.999zm8.517 -1.504c-0.067,1.314 -0.462,2.664 -1.504,3.47 -1.66,-0.418 -1.069,-1.218 -2.326,-1.497 -1.12,-0.133 -2.116,1.095 -2.833,0.62 -1.084,-0.936 -1.783,-1.725 -2.992,-2.716 2.233,-0.45 2.923,-2.222 4.901,-1.109 0.991,0.557 0.866,1.31 1.977,1.512 0.795,0.145 1.719,-0.285 2.777,-0.28zm-4.183 -1.497c-1.157,-0.961 -3.644,-0.69 -5.145,-0.846l0.897 -1.131c-0.256,-0.819 -1.522,-2.648 0.487,-1.65 0.582,0.289 1.407,1.372 2.349,1.639 1.845,0.524 2.09,-0.507 3.479,-0.705 1.528,-0.218 1.615,0.572 2.561,1.355l-0.283 2.009c-2.89,0.647 -2.253,1.067 -4.345,-0.671zm-19.158 -2.798c1.128,-0.376 7.686,-0.215 11.26,-1.159 3.407,-0.9 2.473,0.617 2.637,0.782 -2.496,0.522 -3.327,0.995 -6.417,1.059 -1.861,0.039 -6.013,0.299 -7.48,-0.682zm23.09 -2.092c1.045,0.903 0.864,0.842 0.718,2.325 -3.783,-1.672 -2.229,-0.183 -4.97,0.084 -1.641,0.16 -2.648,-1.512 -3.603,-2.218l1.39 -1.751c2.937,0.298 0.913,0.989 4.649,0.85 0.786,-0.029 1.162,0.146 1.815,0.71zm-5.362 -2.242c1.09,-1.471 1.689,-1.771 3.47,-1.65 2.744,0.187 2.751,0.238 2.485,3.304 -1.934,-0.569 -0.568,-0.748 -3.17,-0.631 -1.742,0.078 -1.304,-0.084 -2.785,-1.024zm4.366 -6.356c0.319,-1.254 0.172,-2.614 0.794,-3.626 1.161,0.337 1.034,1.326 1.138,2.461l1.233 -0.111c-0.255,1.953 -0.536,1.168 -0.986,2.709l1.629 0.502c-1.281,2.816 -5.764,3.621 -6.97,-0.915 1.212,-0.305 1.283,0.596 1.839,0.335 -0.528,-1.209 -0.459,-1.037 -0.218,-2.344l1.542 0.99zm-20.521 -2.351c0.299,-0.757 2.323,-1.371 3.291,-1.414l-1.081 1.541 -1.335 -0.546 -0.74 0.813c-0.194,0.214 -0.36,-0.023 -0.135,-0.394zm3.291 -1.414c2.538,-0.61 5.056,-1.596 7.644,-2.106l-0.439 1.408 -1.112 -0.702 -0.642 1.143 -1.173 -0.617 -0.634 0.934 -1.618 -0.409 -0.806 1.523 -1.22 -1.174zm7.591 4.707c-2.57,2.379 -15.788,1.57 -13.73,9.4 2.554,3.677 13.801,0.139 15.464,0.85 0.827,0.197 -1.755,1.133 -1.469,1.436l2.581 0.894 -2.612 1.068 1.524 1.489c-1.661,0.375 -2.08,-0.279 -3.882,-0.187 -1.191,0.061 -2.664,0.439 -3.876,0.64 -3.624,0.598 -3.422,0.143 -6.383,2.217 -4.291,3.005 -6.051,4.022 -8.366,9.15 -2.118,4.693 -2.569,9.768 -1.814,14.842 0.593,3.981 1.887,1.085 1.843,6.658 -0.041,5.29 1.902,3.212 2.901,5.939 -1.843,0.526 -1.284,0.177 -2.629,-0.403 0.407,1.106 1.545,3.231 1.059,3.336 -1.96,0.226 -1.865,-0.891 -3.121,-1.859 0.145,1.279 0.061,3.067 -0.252,3.051 -2.834,-0.323 -3.437,-2.73 -5.946,-4.177 -3.22,-1.857 -22.09,-4.984 -25.952,-4.964 -6.281,0.032 -12.813,1.434 -19.1,1.503 -4.385,0.048 -13.451,2.122 -16.982,0.322 -1.545,-0.788 -1.186,-1.306 0.195,-1.968 2.074,-0.996 6.049,-1.794 7.471,-2.116 7.756,-1.754 11.769,-2.284 18.541,-5.672 2.806,-1.404 4.993,-3.153 7.83,-4.594 10.049,-5.105 16.938,-16.652 21.711,-27.016 1.354,-2.942 1.829,-5.876 3.345,-8.761 1.43,-2.722 2.437,-5.517 3.872,-8.222 1.352,-2.549 4.237,-4.246 6.904,-5.19 4.597,-1.627 6.377,-0.31 10.784,-0.216 2.311,0.049 8.787,-0.068 10.436,1.594 3.482,3.51 -3.952,4.535 -5.891,5.034 -0.903,0.232 -9.811,2.485 -5.318,4.398 2.481,1.056 9.558,-0.513 10.865,1.525zm-26.013 -14.86c1.422,0.173 3.287,1.015 4.086,0.692 0.698,-0.283 0.821,-1.93 1.617,-2.883l2.022 1.594 2.409 -1.073c-0.146,0.813 -0.249,1.825 -0.358,2.262 -0.215,0.864 -6.245,0.726 -10.538,4.624 -2.928,2.659 -8.689,19.823 -11.373,24.302 -1.656,2.763 -4.946,9.152 -6.683,11.151 -7.889,9.081 -9.931,9.506 -20.573,15.401 -5.545,3.071 -7.722,3.056 -13.513,4.557 -5.094,0.854 -10.002,2.833 -12.192,2.807 -0.44,-0.005 -0.345,-1.069 -0.048,-1.756l1.977 0.544 2.341 -4.593 2.86 2.529 1.996 -3.029 3.449 1.714 2.045 -3.456 4.076 2.203 1.588 -3.797 3.884 1.859 1.229 -4.848 5.063 0.878 -0.157 -3.495 4.18 0.642 0.733 -4.015c1.652,0.086 2.715,1.179 4.715,0.863l0.928 -4.116 3.559 0.032c0.224,-1.984 -1.038,-3.329 -1.523,-4.925l4.63 -0.467c-0.129,-1.489 -0.978,-2.213 -1.556,-3.5 1.847,-0.155 2.365,0.572 4.578,-0.03l-1.317 -3.764 3.352 0.499c-0.053,-2.166 -1.525,-3.344 -2.076,-5.231l3.644 -0.163c-0.066,-1.41 -2.401,-3.866 -2.953,-5.483 1.644,-0.873 2.856,-0.818 4.607,-0.806 0.132,-1.739 -1.061,-3.151 -1.096,-4.623l3.712 -0.706c-0.148,-2.604 -1.329,-3.076 -1.898,-5.109l5.148 -0.998 -0.411 -3.275 3.5 -0.53 0.336 -2.479zm10.86 -2.909l-3.063 1.695 -2.54 -2.193 -1.283 3.554 -4.98 -1.136 0.206 3.023 -4.287 0.622 0.96 3.279 -5.403 1.327c0.561,1.611 1.9,2.737 2.123,4.799l-4.028 0.773 1.289 4.065 -4.462 1.202c0.642,1.84 2.693,3.686 2.723,5.672l-3.593 -0.164c0.585,1.824 1.964,2.958 2.16,5.213l-3.667 -0.976c0.208,1.489 1.624,2.231 1.278,4.497l-4.398 -0.507c0.37,1.459 1.502,2.238 1.69,4.177l-4.556 -0.138c0.307,1.957 1.444,2.301 1.639,5.391l-3.711 -0.597 -0.738 4.383c-2.406,-0.049 -2.953,-1.028 -4.826,-1.48 0.014,1.437 0.251,3.515 -0.774,4.587l-4.164 -0.76 0.233 3.646 -4.925 -0.91 -1.051 4.728 -4.044 -2.14 -1.585 3.984 -3.819 -2.22 -2.19 3.478 -3.132 -1.66 -2.178 2.881 -2.778 -2.581 -2.443 5.002 -2.269 -0.871 -0.055 3.009c0.112,0.719 -0.966,1.578 0.3,2.389 3.974,2.546 12.82,0.274 17.394,0.213 6.748,-0.09 13.755,-1.653 20.4,-1.491 2.4,0.058 6.954,0.91 9.559,1.319 4.262,0.669 13.861,2.027 16.854,4.794 0.813,0.751 1.967,2.156 2.832,2.629 2.7,1.477 1.921,-0.191 2.708,-1.515 2.36,1.064 3.549,1.939 2.663,-2.09 -0.11,-0.267 2.041,-0.043 1.98,-0.703 -0.324,-2.171 -2.02,-1.109 -2.91,-4.199 2.038,0.373 4.388,1.419 6.356,0.384 1.454,-1.031 -1.654,-1.93 -0.799,-2.386 1.159,-0.668 1.873,-0.596 1.899,-1.362 -0.004,-0.686 -0.448,-0.472 -1.401,-1.199 -1.078,-0.822 1.141,-2.028 -5.755,-1.82 -0.347,-2.248 3.173,-16.111 4.125,-19.072 0.936,-2.911 1.895,-5.767 4.642,-7.435 1.558,-0.946 8.653,-1.991 10.441,-1.714 0.742,1.89 -0.478,4.483 3.491,5.185 2.345,0.415 4.768,-0.634 6.414,-2.232 3.449,-3.348 2.587,-10.317 2.543,-14.59l2.326 -3.297c-0.41,-0.766 -1.03,-0.532 -1.707,-0.639 0.386,-1.208 1.083,-2.204 1.157,-3.625 -0.429,0.071 -1.17,0.617 -1.6,0.688 -0.505,-0.828 -0.502,-1.918 -1.482,-2.746 -1.701,1.502 -0.99,2.412 -1.399,3.582l-0.928 -1.829c-0.801,0.982 -0.466,1.184 -0.909,2.003 -0.941,1.74 -0.046,0.781 -1.861,0.767l1.537 4.239c-1.576,1.051 -2.33,1.754 -3.643,3.103 -1.514,1.555 -2.386,1.282 -4.686,1.662 -3.543,0.576 -7.119,1.411 -10.742,1.174 -1.207,-0.079 -1.276,0.061 -1.2,-1.252 0.367,-6.358 12.092,-4.913 13.751,-7.712 0.347,-1.326 -0.405,-0.701 -0.651,-2.656 -0.387,0.047 -0.738,1.555 -1.091,0.24 -0.01,-0.668 -7.404,0.655 -9.264,0.387 -0.249,-0.032 0.443,-1.214 0.601,-1.156l1.351 0.498 0.955 -1.112 1.39 0.961 0.735 -1.675 1.643 0.496 0.743 -1.001 1.138 0.575 0.667 -0.878 1.228 0.67c0.923,-3.912 4.506,-6.989 -2.853,-8.083 -4.351,-0.646 -8.672,-0.088 -12.793,-1.199l0.494 -3.947z"/><path class="fil0" d="M81.188 8.943c0.031,0.513 1.575,0.575 1.848,-0.31 0.128,-0.344 0.354,-1.352 -0.452,-1.295 -1.032,0.014 -1.428,0.493 -1.396,1.604z"/><path class="fil0" d="M91.57 9.379c0.282,0.076 0.532,-0.983 0.011,-0.886 -0.202,-0.01 -0.706,0.614 -0.011,0.886z"/></g><text x="0" y="92.583" fill="#000000" font-size="5px" font-weight="bold" font-family="'Helvetica Neue', Helvetica, Arial-Unicode, Arial, Sans-serif">Created by Valeriia Vlasovtseva</text><text x="0" y="97.583" fill="#000000" font-size="5px" font-weight="bold" font-family="'Helvetica Neue', Helvetica, Arial-Unicode, Arial, Sans-serif">from the Noun Project</text></svg>