<svg xmlns="http://www.w3.org/2000/svg" xmlns:xlink="http://www.w3.org/1999/xlink" xml:space="preserve" version="1.1" style="shape-rendering:geometricPrecision;text-rendering:geometricPrecision;image-rendering:optimizeQuality;" viewBox="0 0 32.925 31.545" x="0px" y="0px" fill-rule="evenodd" clip-rule="evenodd"><g><path class="fil0" d="M0.388 10.706c0.431,-0.118 2.854,-0.372 3.174,-0.03 0.679,0.728 -0.556,3.386 -2.956,3.75 -0.682,-1.921 -0.013,-2.296 -0.217,-3.72zm3.815 -0.352c1.443,0.153 1.643,0.937 0.129,1.564 0.266,0.56 0.353,1.059 0.065,1.572 -0.368,0.656 -0.616,0.763 -1.314,0.781 -0.086,-0.003 -0.183,-0.032 -0.263,-0.034 -0.239,0.612 0.038,1.12 -0.819,1.611 -0.872,0.5 -1.038,-0.182 -1.35,-0.946 0.765,-0.404 3.364,-1.262 3.439,-3.836 0.016,-0.537 -0.03,-0.388 0.114,-0.712zm11.274 3.459c0.908,-1.183 2.42,-1.48 2.838,0.227 0.035,0.524 0.316,1.242 -0.831,1.653 -0.07,0.061 -0.628,0.202 -0.635,0.204 -2.027,0.482 -1.94,-1.515 -1.372,-2.084zm2.34 2.142c0.91,1.428 -2.399,2.771 -1.985,0.388 1.161,-0.023 0.61,0.045 1.985,-0.388zm14.524 -11.01c0.293,1.066 0.308,3.122 -0.266,3.916 -0.899,0.076 -2.985,-0.757 -3.001,-2.226 -0.009,-0.859 0.772,-0.965 1.296,-1.059 0.859,-0.156 1.162,-0.396 1.971,-0.63zm-16.555 14.191c0.344,0.758 -0.01,1.673 -0.566,2.204 -1.925,-1.478 -1.948,-7.162 -0.468,-9.04 1.552,1.489 -0.658,1.912 0.635,3.722 -0.92,0.119 -0.614,-0.439 -1.155,0.003 0.109,0.569 0.38,0.203 1.144,0.382 0.056,0.506 0.013,0.518 0.161,1.167 -0.497,0.052 -0.761,-0.515 -1.078,-0.256 0.023,0.103 -0.115,0.306 0.582,0.549l0.652 0.369c0.43,0.611 -0.512,0.453 -0.82,0.994 0.236,0.217 0.609,-0.064 0.913,-0.096zm2.479 -0.871c-0.807,0.613 -1.411,0.694 -2.127,0.366 -0.087,-0.727 0.074,-0.571 0.684,-0.696 0.983,-0.201 0.831,-0.635 1.443,0.33zm-5.329 5.483c-1.206,-1.591 -1.013,-0.99 -2.244,-1.627l0.631 -0.411c0.297,-0.166 0.511,-0.297 0.696,0.152 0.086,0.208 0.072,0.332 0.151,0.648l0.508 -0.354c0.4,-0.279 0.62,-0.157 0.739,0.157 0.215,0.571 -0.045,0.814 -0.481,1.435zm-0.277 0.368c-0.711,0.52 -1.185,0.753 -1.821,0.734 -0.45,-0.014 -0.536,-0.123 -0.732,-0.55 -0.285,-0.618 -0.088,-1.209 0.433,-1.793 1.107,0.374 1.387,0.386 2.121,1.609zm4.224 -4.176c-0.443,-0.087 -0.671,-0.338 -0.71,-0.7 0.875,-0.232 0.96,-0.075 2.212,-0.509 0.312,1.084 -0.888,1.18 -1.501,1.209zm-5.692 1.27l1.498 -1.806c-0.452,-0.045 -0.317,-0.087 -0.818,0.129 -2.578,1.112 -5.571,1.605 -7.986,0.091 -0.521,-0.327 -2.84,-2.802 -2.319,-3.179 0.104,-0.075 0.135,-0.092 0.259,-0.161 0.808,-0.45 0.929,-0.415 1.208,-1.523 0.056,-0.013 0.199,-0.024 0.257,-0.038 1.936,-0.482 1.34,-1.952 1.738,-2.617 0.31,-0.518 1.362,-0.942 0.008,-1.916 1.108,-0.54 3.743,-0.442 4.732,-0.418 1.29,0.031 3.304,0.589 4.514,2.129 -0.418,1.682 -1.283,1.528 -1.114,4.859 0.094,1.845 0.338,3.329 1.785,5.18l-1.141 1.33c-0.101,-0.261 0.114,-0.631 -0.073,-1.083 -0.302,-0.734 -0.476,-0.327 -1.626,-0.916 -0.361,-0.264 -0.283,-0.274 -0.92,-0.06zm7.503 -2.579c0.511,-0.227 0.928,-0.201 1.136,-0.631 -0.425,-0.09 -0.711,0.135 -1.183,0.099 -0.847,-1.124 0.141,-0.712 0.702,-1.882 -0.593,-0.033 -0.447,0.119 -0.975,0.647 -0.048,-0.454 -0.014,-0.548 -0.104,-1.165 0.542,-0.463 1.033,-0.298 1.198,-1.01 -0.329,-0.229 -0.538,0.265 -0.807,0.397 -0.233,0.089 0.135,-1.271 -0.566,-2.171 -0.388,-0.498 0.166,-1.764 0.297,-1.985 1.124,1.574 2.004,2.839 2.207,4.816 0.067,1.223 0.158,3.344 -0.644,4.714 -0.07,0.214 -1.324,-0.912 -1.261,-1.829zm13.263 -9.284c-0.13,0.614 -0.322,0.779 -0.813,0.953 -0.44,0.157 -0.578,0.019 -0.714,-0.297 -0.137,-0.32 0.034,-0.271 -0.08,-0.825 -0.871,0.015 -1.558,0.085 -1.596,-1.083 -0.404,-0.144 -0.886,-0.004 -1.049,-0.736 -0.118,-0.53 0.425,-0.955 0.988,-1.342 0.337,2.49 1.009,2.602 3.263,3.329zm-10.38 12.6l-1.21 -1.078c0.625,-1.487 0.747,-3.397 0.709,-4.991 -0.049,-2.069 -0.882,-3.48 -2.508,-5.3 1.478,-4.127 6.723,-4.792 9.36,-4.665 -0.28,0.911 -1.268,1.365 0.012,2.291 1.177,0.851 0.668,1.384 2.085,1.432 0.007,1.194 0.711,1.256 1.777,0.707 -0.016,0.161 -0.015,0.178 -0.063,0.384l-1.152 2.637c-1.517,2.374 -5.27,5.333 -8.435,5.07 -0.66,-0.055 -0.419,-0.042 -0.836,0.083 0.351,0.307 1.419,0.668 1.889,0.771 0.231,0.163 -0.254,0.298 -0.356,0.698 -0.168,0.507 -0.048,0.316 -0.666,0.525 -0.719,0.361 -0.583,0.755 -0.608,1.435zm1.802 -2.016c0.57,-0.213 1,0.246 1.523,0.626 -1.339,0.36 -1.443,0.904 -2.277,1.926 -0.683,-0.678 -0.951,-0.919 -0.488,-1.615 0.508,-0.459 0.728,0.754 0.922,0.066 0.177,-0.684 -0.202,-0.808 0.319,-1.002zm-0.336 2.838c0.205,-0.531 0.637,-1.39 1.487,-1.722 0.529,-0.206 1.517,-0.058 1.763,0.839 0.453,1.653 -2.191,1.745 -3.25,0.883zm-19.095 -2.705c3.477,1.524 4.79,0.692 7.496,0.207 -0.686,0.974 -1.403,1.937 -1.681,2.951 -0.307,1.118 0.206,2.355 1.571,1.926 2.072,-0.652 4.322,-3.153 4.966,-4.951 0.039,-0.091 0.129,-0.038 0.157,-0.031 1.1,0.246 1.078,0.108 2.226,-0.447 1.017,1.044 1.955,1.885 3.073,2.716 3.17,2.357 6.114,0.733 4.445,-1.389 -0.768,-0.977 -2.168,-1.57 -3.071,-2.227 2.886,-0.47 6.631,-3.042 8.046,-5.872 0.913,-1.825 2.363,-6.608 1.473,-8.469 -0.644,0.154 -1.343,0.572 -1.998,0.714 -3.027,0.658 -3.355,0.269 -5.794,0.569 -2.433,0.299 -6.018,2.21 -6.866,5.425 -0.145,-0.981 0.408,-4.625 0.755,-5.815 0.411,-1.409 1.455,-3.064 2.94,-3.69 1.239,-0.523 1.936,-0.492 1.957,1.031 -0.095,0.413 -0.479,0.369 -0.635,0.077 -0.185,-0.39 0.486,-0.796 -0.254,-0.624 -0.619,0.144 -1.019,1.116 -0.853,1.681 0.283,-0.264 0.319,-1.064 0.535,-0.919 0.618,0.578 0.1,0.466 0.436,1.317 0.283,-0.563 -0.035,-0.821 0.554,-1.048 0.584,-0.226 0.544,0.042 1.035,0.43 -0.091,-0.653 -0.402,-0.541 -0.53,-1.304 0.468,-0.328 0.461,-0.069 1.117,0.01 -0.904,-0.776 -0.723,-0.211 -1.281,-0.796 -0.159,-0.28 0.229,-0.005 0.628,-0.671 0.022,-0.031 0.102,-0.193 0.113,-0.237l-1.096 0.546c-0.178,-0.829 0.265,-0.663 0,-1.174 -0.251,0.483 -0.285,0.738 -0.745,1.065l-0.277 -0.819c-0.257,0.582 0.038,0.889 -0.524,0.997 -0.697,0.135 -0.021,-0.23 -0.783,-0.519 0.145,0.525 0.336,0.678 -0.218,1.036 -0.7,0.452 -0.014,0.14 -0.99,-0.157 0.848,1.427 -0.512,1.198 -0.923,2.237 -0.303,0.578 -0.802,2.425 -1.104,4.356 -0.011,0.507 -0.414,2.32 -0.231,3.237 0.227,1.075 -0.535,1.215 -1.584,1.462 -0.327,-1.323 -0.256,-3.041 -0.869,-4.618 -1.221,-3.141 -1.716,-2.363 -1.643,-3.418l0.078 -0.22c-0,0 -1.019,0.455 -1.15,-0.409l0.109 -0.492c-0.348,0.168 -0.896,0.594 -1.045,0.505 -0.467,-0.368 -0.156,-0.191 -0.401,-0.768 -0.352,0.695 -0.021,0.674 -0.721,0.899 -0.224,0.072 -0.2,0.078 -0.403,-0.064 -0.278,-0.196 -0.017,-0.166 -0.379,-0.447 0.027,0.864 0.498,0.617 0.132,1.123 -0.455,0.631 -0.262,0.076 -1.047,-0.002 0.519,0.592 0.541,0.307 0.869,0.904 -0.199,0.608 -0.329,0.408 -0.305,0.998 0.541,-0.106 0.019,-0.418 0.81,-0.445 0.214,0.591 0.021,0.55 0.163,1.106 0.441,-0.566 0.201,-0.506 0.352,-1.072 0.432,0.181 0.343,0.304 0.504,0.815 0.429,-0.714 0.039,-0.398 0.029,-1.225 0.428,0.149 0.35,0.325 0.786,0.385 -0.098,-0.3 -0.544,-1.482 -0.986,-1.293 -1.256,0.779 0.628,0.329 -0.317,0.833 -0.496,0.265 -0.859,0.129 -0.76,-0.442 2.12,-4.022 6.131,3.435 5.613,7.09 -1.29,-1.505 -2.078,-2.121 -3.665,-2.773 -2.193,-0.901 -5.579,-0.315 -7.901,0.144 -0.78,0.154 -1.146,0.287 -1.943,0.31 -0.759,0.021 -1.214,-0.043 -1.859,0.044 -0.061,0.34 -0.087,1.729 -0.084,2.088 0.02,2.998 2.231,6.861 3.947,7.613z"/><path class="fil0" d="M25.157 8.289c-0.686,0.485 -1.237,0.483 -1.777,0.579 -0,-0.002 -0.332,-0.634 0.56,-1.043 0.513,-0.235 0.748,-0.047 1.216,0.464zm-3.832 2.696c0.231,0.887 0.502,1.142 -0.055,1.916 -0.265,-0.207 -0.653,-0.206 -0.796,-0.621 -0.188,-0.535 0.127,-0.973 0.851,-1.295zm0.484 3.643c0.629,0.27 0.706,0.382 1.131,0.966 -1.171,0.654 -1.622,-0.22 -1.131,-0.966zm6.05 -5.151c0.483,0.208 1.004,0.361 1.032,1.09 0.016,0.438 -0.231,0.86 -0.668,1.07 -0.851,-0.49 -0.778,-1.538 -0.364,-2.16zm-3.186 3.664c-0.655,0.827 -0.657,1.279 -1.444,2.189l-1.252 -1.152c0.537,-0.914 0.788,-0.643 1.38,-1.292 -0.631,-0.26 -0.57,0.134 -1.506,-0.012 -0.024,-0.17 -0.142,-1.71 -0.105,-2.04 0.948,-0.143 1.347,0.371 2.022,0.349 -0.005,-0.05 0.011,-0.083 -0.028,-0.146 -0.065,-0.106 -0.485,-1.228 -0.472,-1.843l1.983 -0.411c0.301,0.953 -0.37,1.121 -0.053,1.978l2.002 -1.251c0.092,0.36 0.006,1.464 0.438,2.478 -0.508,0.109 -0.926,-0.099 -1.295,-0.047 0.07,0.69 0.426,1.68 0.526,2.241 -0.82,0.314 -0.967,0.066 -1.894,0.909l-0.3 -1.948zm2.303 1.619c-0.284,0.982 -1.245,1.593 -1.812,0.693 0.953,-1.178 1.428,-0.864 1.812,-0.693zm-0.219 -2.301c0.629,-0.189 1.217,-0.091 1.86,-0.66 1.073,-0.951 0.608,-2.825 -1.243,-2.55 -0.2,0.03 -0.669,0.195 -0.858,0.281 -0.744,0.338 -0.502,0.361 -1.065,0.338 0.799,-2.574 -1.795,-3.22 -2.39,-1.444 -0.287,0.857 -0.05,1.214 0.098,2.198 -3.504,-0.716 -3.644,2.257 -1.912,2.573 0.377,0.069 0.363,-0.05 0.808,0.164 -0.485,0.897 -1.713,2.82 0.207,2.883 1.16,-0.131 1.629,-1.314 2.123,-2.096 0.182,0.962 0.844,2.999 2.308,1.596 0.964,-0.923 0.536,-2.17 0.064,-3.283z"/><path class="fil0" d="M8.974 11.283l-1.151 0.553c-0.074,-0.235 -0.384,-0.409 0.171,-0.793 0.374,-0.258 0.591,-0.091 0.98,0.239zm-3.369 4.416c-0.522,-0.688 -0.808,-2.334 0.297,-2.204 0.522,0.061 0.184,1.727 -0.297,2.204zm6.903 -3.508c0.217,0.128 0.388,0.248 0.504,0.369 0.334,0.348 0.221,0.707 -0.509,1.319 -0.202,-0.344 -0.316,-0.69 -0.338,-0.927 0.015,-0.328 0.007,-0.356 0.343,-0.761zm-0.527 1.459c0.019,0.278 0.013,0.206 -0.003,0.37 -0.246,0.07 -0.493,0.111 -0.625,0.137l-0.572 0.125c0.774,0.711 0.938,0.529 1.601,1.576 -0.949,0.443 -1.019,0.476 -1.742,1.329l-1.118 -1.469c-0.494,0.945 -0.098,1.429 -1.001,2.575 -0.576,-0.37 -1.091,-0.561 -1.532,-0.867 0.093,-0.675 0.163,-0.595 0.391,-1.126 0.114,-0.264 0.082,-0.165 0.126,-0.383 -0.608,-0.142 -0.741,0.046 -1.379,-0.125 0.353,-1.644 0.234,-0.455 0.339,-2.11l0.033 -0.254c0.941,-0.123 1.013,0.22 1.705,0.109l-0.5 -1.306 1.572 -0.559 0.645 1.402c0.805,-0.306 1.163,-0.754 1.941,-0.719l0.118 1.296zm-3.724 5.087c-0.793,0.482 -1.357,0.201 -1.299,-0.767 0.519,0.019 0.919,0.265 1.299,0.767zm3.697 -1.287c-0.484,0.374 -0.535,0.213 -0.939,0.041 0.218,-0.517 0.831,-1.069 1.403,-1.332 0.127,0.407 0.081,0.87 -0.464,1.291zm-0.233 -2.91c1.065,-0.471 1.68,-0.751 1.676,-1.672 -0.002,-0.466 -0.1,-0.567 -0.526,-0.79 -0.93,-0.487 -1.653,0.279 -2.8,0.441 -0.509,-0.909 -0.432,-1.029 -1.291,-1.851 -0.54,-0.222 -1.488,-0.053 -1.359,1.452 0.024,0.277 0.047,0.244 0.082,0.491l0.037 0.371c0.002,0.026 0.004,0.083 0,0.123 -1.041,-0.035 -3.019,-0.309 -2.697,1.623 0.213,1.282 0.794,1.58 1.999,1.457 0.034,0.534 -0.743,2.47 0.392,3.035 1.619,0.467 1.986,-1.776 2.446,-2.69 2.284,3.136 3.12,0.412 3.038,-0.418 -0.063,-0.639 -0.477,-1.023 -0.996,-1.572z"/><path class="fil0" d="M15.699 14.026c-0.112,0.304 -0.167,0.496 0.287,0.798 0.1,0.039 0.388,0.102 0.549,-0.575 0.076,-0.389 -0.025,-0.42 -0.233,-0.46 -0.182,0.006 -0.515,0.046 -0.603,0.237z"/><path class="fil0" d="M17.803 14.066c0.011,-0.33 -0.05,-0.46 -0.397,-0.484 -0.312,0.064 -0.461,0.152 -0.441,0.463 0.007,0.113 0.044,0.296 0.136,0.421 0.364,0.499 0.673,-0.059 0.702,-0.401z"/><path class="fil0" d="M9.481 13.786c0.235,-0.099 0.371,0.323 0.35,0.611 -0.045,0.626 -0.415,0.417 -0.472,0.427 -0.389,-0.242 -0.667,-0.729 0.122,-1.038zm0.578 0.891c0.325,-1.198 -0.971,-1.8 -1.421,-0.646 -0.316,0.81 1.069,1.942 1.421,0.646z"/><path class="fil0" d="M25.01 11.949c-0.178,0.294 -0.71,0.316 -0.637,-0.161 0.028,-0.279 0.187,-0.581 0.401,-0.516 0.428,0.139 0.408,0.405 0.236,0.677zm0.138 0.21c0.161,-0.27 0.483,-0.628 -0.088,-1.004 -0.313,-0.206 -0.715,-0.073 -0.981,0.35 -0.454,0.722 0.548,1.529 1.069,0.654z"/><path class="fil0" d="M15.94 15.242l1.858 -0.23c-0.314,0.681 -1.652,0.5 -1.858,0.23z"/></g><text x="0" y="40.236000000000004" fill="#000000" font-size="5px" font-weight="bold" font-family="'Helvetica Neue', Helvetica, Arial-Unicode, Arial, Sans-serif">Created by Valeriia Vlasovtseva</text><text x="0" y="45.236000000000004" fill="#000000" font-size="5px" font-weight="bold" font-family="'Helvetica Neue', Helvetica, Arial-Unicode, Arial, Sans-serif">from the Noun Project</text></svg>