<svg xmlns="http://www.w3.org/2000/svg" xmlns:xlink="http://www.w3.org/1999/xlink" xml:space="preserve" version="1.1" style="shape-rendering:geometricPrecision;text-rendering:geometricPrecision;image-rendering:optimizeQuality;" viewBox="0 0 28.029 34.67125" x="0px" y="0px" fill-rule="evenodd" clip-rule="evenodd"><g><path class="fil0" d="M22.675 26.265c-0.813,-0.275 -0.53,-1.135 -0.789,-2.856 1.059,0.246 1.873,1.525 2.248,2.772 0.048,0.228 -0.805,0.183 -0.844,0.064l-0.296 -0.765c-0.213,0.161 0.023,0.366 0.007,0.592 -0.017,0.246 -0.269,0.205 -0.326,0.192zm-1.999 -7.315c-0.177,0.501 -0.198,0.007 -0.203,-0.675 -0.023,-2.944 0.102,-3.418 -0.285,-6.656l1.818 0.118c0.131,0.877 -0.083,3.155 -0.213,4.076 -0.158,1.116 -0.906,2.112 -1.117,3.138zm-3.262 -2.403c-0.094,0.557 -0.282,1.954 -0.408,1.498 -0.046,-1.947 -0.369,-4.502 -0.802,-6.348l1.652 -0.004c0.322,2.136 -0.142,3.081 -0.442,4.854zm-3.811 3.24c-0.211,-1.176 -0.216,-3.082 -0.375,-4.277 -0.141,-1.054 -0.583,-3.074 -0.894,-4.032l1.745 0.237c0.42,1.58 0.352,6.425 -0.24,8.069 -0.152,0.423 -0.163,0.416 -0.236,0.004zm10.625 -11.743c-0.203,-1.087 -0.043,-0.948 0.996,-1.05 0.684,-0.067 1.314,-0.178 2.056,-0.207l0.065 0.996 -3.117 0.26zm-10.259 18.958c-0.377,0.072 -0.76,0.109 -1.15,0.027 -0.231,-0.067 -0.048,-0.724 -0.376,-0.991 -0.575,0.418 0.19,1.098 -0.29,0.939 -1.222,-0.503 -0.856,-0.398 -0.598,-2.397 0.228,-1.762 -1.716,-3.719 -3.053,0.554 -0.383,1.225 -0.127,1.892 -1.497,2.258l-0.255 -0.649c-0.139,-0.328 -0.528,-0.589 -0.091,0.518 0.032,0.079 0.021,0.146 -0.028,0.151 -1.754,0.093 -0.736,-0.272 -1.229,-0.86 -0.277,0.365 -0.103,0.235 -0.141,0.759 -0.696,-0.18 -0.781,-0.506 -0.325,-1.033 0.444,-0.513 0.643,-0.234 0.688,-1.195 0.07,-1.498 -0.014,-5.847 -0.954,-6.892 -1.403,-1.559 -2.572,0.242 -3.88,-1.695 -0.91,-1.348 -0.584,-3.135 0.007,-4.502 1.122,-1.882 1.305,-0.497 1.882,-5.589 0.324,0.142 0.439,0.163 0.711,0.746 0.192,0.412 0.244,0.702 0.498,1.096 1.031,1.602 0.238,1.636 0.832,2.414 0.294,-0.123 0.401,-0.151 0.415,-0.933 0.007,-0.398 -0.008,-0.875 -0.033,-1.274 1.313,-0.43 0.409,1.004 0.972,1.918 0.877,-0.098 0.715,-1.483 1.168,-2.201 0.521,-0.825 0.894,-1.865 1.224,-2.099 0.674,3.337 0.057,2.203 1.51,3.292 3.988,2.99 2.54,6.454 3.423,11.118 0.585,-0.024 0.649,-0.241 0.717,-0.596l0.427 -3.267c0.094,-1.686 0.092,-3.088 -0.129,-4.893 2.013,-0.346 1.756,0.679 2.013,2.333l0.292 3.185c0.025,0.564 -0.041,0.673 0.206,1.097 0.605,0.28 0.782,-1.697 0.98,-2.904 0.303,-1.855 0.29,-3.485 0.371,-3.756 0.517,-0.055 1.108,-0.151 1.541,0.042 0.859,1.586 0.143,6.25 0.467,7.546 0.112,0.448 0.318,0.209 0.521,-0.071 0.539,-0.742 1.043,-2.47 1.156,-3.009 0.228,-1.089 0.326,-3.257 0.352,-4.455 1.095,-0.138 1.49,0.01 1.783,-0.945 0.265,-0.867 -0.023,-1.681 0.189,-2.372 0.835,-0.279 2.112,-0.276 3.032,-0.338 0.219,0.494 0.261,4.131 0.277,4.993 0.079,4.29 0.406,5.038 0.062,10.051 -0.151,2.2 0.329,3.411 -2.048,3.427 -0.122,-0.157 -0.111,-0.461 -0.348,-0.735 -0.083,0.062 -0.008,0.215 -0.029,0.344l-0.034 0.331c-1.444,0.037 -0.063,-0.527 -2.116,-2.636 -1.869,-1.921 -6.076,-1.358 -7.51,-0.432 -1.474,0.952 -0.027,3.142 -1.6,3.578zm10.252 -22.968c1.056,-0.239 1.681,-0.443 2.746,-0.179l0.281 2.66 -3.071 0.325 0.045 -2.807zm-18.186 4.37l0.783 -0.078c-0.054,0.593 -0.249,1.477 -0.634,1.831l-0.15 -1.752zm-1.152 1.25c-0.061,0.285 -0.074,0.213 -0.159,0.365 -0.252,-1.635 -0.388,-1.445 0.027,-1.543 0.151,0.273 0.21,0.811 0.132,1.178zm19.402 -5.932c0.021,-0.657 -0.103,-0.587 0.451,-0.783 0.23,-0.081 0.725,-0.167 0.99,-0.194 1.689,-0.167 1.347,0.35 1.338,0.679l-2.779 0.297zm0.097 -1.006c0.038,-0.774 0.53,-2.211 1.252,-2.38 1.038,-0.243 1.503,1.052 1.512,2.144l-2.764 0.237zm-2.104 23.717c0.244,0.239 1.355,-0.011 1.988,0.161 2.774,0.756 3.658,0.151 3.639,-2.521 -0.02,-2.803 0.176,-5.399 0.11,-8.275l-0.338 -6.621c-0.032,-0.761 0.087,-1.296 0.042,-1.953 -0.12,-1.74 -0.433,-2.305 -0.316,-4.271 0.078,-1.319 -0.039,-2.944 -1.472,-2.954 -3.111,-0.022 -1.563,9.356 -2.117,10.815 -0.364,0.958 -1.798,0.594 -3.504,0.571 -0.742,-0.01 -1.397,0.048 -2.082,-0.018 -0.704,-0.068 -4.505,0.282 -5.821,-0.217 -0.84,-0.318 -0.788,-1.125 -2.483,-2.191 -1.598,-1.006 -0.454,-2.483 -1.471,-3.314 -0.555,0.293 -0.938,1.771 -1.402,2.348l-2.744 0.235c-0.73,-0.787 -0.629,-1.917 -1.637,-2.247 -0.635,0.736 -0.404,3.098 -0.899,4.174 -0.296,0.645 -0.77,0.897 -1.104,1.615 -0.904,1.941 -1.101,4.624 0.76,5.642 1.011,0.553 2.851,-0.241 3.499,1.697 0.383,1.144 0.374,3.825 0.423,5.114 0.062,1.642 0.065,1.026 -0.71,1.937 -1.314,1.543 1.772,1.902 3.023,1.298 0.762,-0.367 0.735,-0.778 0.927,-1.634 0.212,-0.946 0.957,-3.255 2.089,-2.858 1.551,0.732 -0.299,2.9 0.606,3.945 0.279,0.322 3.378,1.023 3.724,-0.694 0.428,-2.12 -0.455,-2.374 2.081,-3.064 1.479,-0.403 3.244,-0.465 4.432,0.161 0.339,0.943 0.02,2.4 0.758,3.12z"/><path class="fil0" d="M5.795 14.104c-0.574,-0.819 -0.027,-0.461 -1.041,-0.861l1.473 -0.122c-0.534,0.512 -0.177,0.361 -0.432,0.983zm-1.368 -0.971c0.197,0.743 0.202,0.289 0.955,0.575 0.128,0.088 0.4,0.795 0.39,0.932l-0.044 0.924c-0.76,0.463 -0.879,0.281 -1.428,-0.111 0.041,0.996 1.104,0.516 1.582,0.417 0.607,-0.126 1.749,0.22 1.685,-0.797 -0.533,0.364 -0.575,0.779 -1.449,0.497 -0.425,-0.714 0.005,-1.014 0.05,-2.077 0.337,-0.141 0.5,-0.104 0.54,-0.441 -0.077,-0.216 0.138,-0.299 -1.046,-0.186 -0.339,0.032 -1.065,0.117 -1.233,0.268z"/><path class="fil0" d="M3.251 11.674c0.465,0.055 0.646,0.259 0.768,0.81l-0.767 0.13c0.127,-0.39 0.144,-0.489 -0.001,-0.94zm-1.093 0.639c0.152,-0.389 0.245,-0.517 0.834,-0.657 -0.154,0.567 -0.242,0.55 -0.106,0.953 -0.278,-0.021 -0.569,-0.071 -0.728,-0.295zm-0.362 0.04c0.315,0.383 0.671,0.504 1.221,0.462 0.992,-0.075 0.706,-0.23 1.258,0.009 -0.166,-0.804 -0.224,-1.459 -1.023,-1.467 -0.599,-0.007 -1.161,0.414 -1.456,0.996z"/><path class="fil0" d="M8.272 12.038c0.006,-0.153 0.046,-0.308 0.019,-0.459 -0.014,-0.146 -0.083,-0.229 -0.125,-0.344 0.293,-0.008 0.408,-0.021 0.679,0.326 -0.116,0.313 -0.243,0.392 -0.573,0.477zm-0.328 0.065c-0.166,-0.016 -0.439,-0.03 -0.625,-0.308 0.058,-0.369 0.118,-0.468 0.54,-0.555 -0.04,0.126 -0.126,0.211 -0.121,0.379 0.016,0.182 0.137,0.323 0.205,0.484zm-0.884 0.477c0.159,-0.082 0.187,-0.409 0.325,-0.385 0.833,0.406 1.699,-0.122 1.879,-0.721 -1.037,-1.078 -2.658,-0.753 -2.204,1.107z"/><path class="fil0" d="M7.846 17.124c0.941,0.798 4.457,-0.678 3.88,-2.939 -0.473,0.66 -0.281,1.4 -1.056,2.082 -0.842,0.742 -1.865,0.573 -2.824,0.857z"/><path class="fil0" d="M6.993 14.63c1.063,-0.449 1.831,0.124 2.644,0.3 -0.269,-0.585 -1.378,-0.721 -1.871,-0.693 -0.296,0.047 -0.674,0.096 -0.772,0.392z"/><path class="fil0" d="M1.034 14.864c0.9,-0.186 1.007,-0.476 2.346,-0.538 0.053,-0.003 0.216,0.001 0.261,-0.005 0.652,-0.082 -0.02,-0.254 -0.291,-0.266 -0.757,-0.031 -1.979,0.33 -2.316,0.809z"/><path class="fil0" d="M1.718 15.458c1.053,-0.422 2.133,-0.633 3.274,-0.828 -0.365,-0.275 -0.589,-0.202 -1.114,-0.064 -0.583,0.154 -1.821,0.498 -2.16,0.892z"/><path class="fil0" d="M14.029 26.919c0.143,-0.197 0.126,-0.316 0.066,-0.686 -0.137,-0.564 -0.421,-0.443 -0.35,-0.138 0.042,0.289 0.151,0.641 0.284,0.825z"/><path class="fil0" d="M7.158 13.945c1.195,-0.301 2.088,-0.273 3.22,-0.216 -0.372,-0.304 -2.746,-0.35 -3.22,0.216z"/><path class="fil0" d="M26.647 25.62c-0.052,0.043 -0.277,0.2 -0.175,0.469 0.208,0.718 0.36,-0.296 0.175,-0.469z"/></g><text x="0" y="42.736999999999995" fill="#000000" font-size="5px" font-weight="bold" font-family="'Helvetica Neue', Helvetica, Arial-Unicode, Arial, Sans-serif">Created by Valeriia Vlasovtseva</text><text x="0" y="47.736999999999995" fill="#000000" font-size="5px" font-weight="bold" font-family="'Helvetica Neue', Helvetica, Arial-Unicode, Arial, Sans-serif">from the Noun Project</text></svg>