<svg xmlns="http://www.w3.org/2000/svg" xmlns:xlink="http://www.w3.org/1999/xlink" xml:space="preserve" version="1.1" style="shape-rendering:geometricPrecision;text-rendering:geometricPrecision;image-rendering:optimizeQuality;" viewBox="0 0 3.731 4.8149999999999995" x="0px" y="0px" fill-rule="evenodd" clip-rule="evenodd"><g><path class="fil0" d="M2.525 1.014c-0.024,0.156 -0.005,0.189 0.147,0.157 0.043,-0.013 0.085,-0.112 0.028,-0.16 -0.079,-0.089 -0.152,-0.103 -0.175,0.003z"/><path class="fil0" d="M1.36 0.675c-0.892,0.047 -0.863,0.855 -1.129,1.069 -0.089,0.072 -0.106,0.039 -0.136,-0.059 -0.064,-0.21 0.128,-0.293 0.2,-0.421 0.029,-0.088 -0.198,-0.023 -0.118,-0.151 0.094,-0.117 0.155,-0.145 0.284,-0.172 0.049,-0.01 0.041,-0.04 0.026,-0.059 -0.061,-0.08 -0.116,-0.158 -0.025,-0.202 0.075,-0.036 0.136,-0.015 0.23,-0.014 0.057,0 0.094,0.014 0.075,-0.047 -0.022,-0.071 -0.049,-0.032 -0.045,-0.121 0.004,-0.095 0.04,-0.078 0.111,-0.06 0.091,0.023 0.137,0.072 0.221,0.102 0.049,0.017 0.048,0.023 0.066,-0.025 0.033,-0.085 0.001,-0.082 -0.008,-0.145 -0.011,-0.074 0.03,-0.075 0.1,-0.044 0.127,0.056 0.139,0.194 0.145,0.348zm-0.909 1.288l0.098 -0.033c-0.085,-0.443 0.01,-0.869 0.441,-1.073 0.274,-0.13 0.63,-0.083 0.779,0.223 0.057,0.118 0.045,0.182 0.129,0.202 0.122,-0.163 -0.073,-0.363 0.333,-0.698 0.304,-0.251 0.669,-0.148 0.779,0.009l0.048 -0.043c-0.12,-0.211 -0.301,-0.205 -0.528,-0.201 0.08,-0.162 0.18,-0.234 0.367,-0.247 0.143,0.006 -0.031,0.158 0.052,0.161 0.208,-0.032 0.309,-0.083 0.465,0.033 0.061,0.045 0.091,0.087 0.012,0.175 -0.078,0.088 -0.108,0.077 -0.019,0.139 0.069,0.048 0.142,0.098 0.193,0.181 0.055,0.115 -0.186,0.08 -0.113,0.143 0.056,0.055 0.126,0.119 0.144,0.203 0.055,0.265 -0.038,0.092 -0.041,0.2 -0.011,0.174 0.148,0.379 -0.184,0.343l-0.005 0.043c0.071,0.105 0.185,0.083 0.252,-0.011 0.042,-0.059 0.002,-0.188 0.008,-0.295 0.007,-0.149 0.138,-0.033 0.023,-0.368 -0.114,-0.233 0.057,-0.071 -0.016,-0.315 -0.031,-0.088 -0.124,-0.141 -0.132,-0.209 -0.004,-0.038 0.165,-0.33 -0.298,-0.393 -0.276,-0.037 -0.135,-0.026 -0.221,-0.089 -0.073,-0.053 -0.139,-0.046 -0.226,-0.029 -0.216,0.041 -0.236,0.196 -0.436,0.361 -0.242,0.201 -0.342,0.188 -0.489,0.511 -0.145,-0.077 -0.356,-0.139 -0.42,-0.296 -0.073,-0.18 -0.076,-0.373 -0.28,-0.383 -0.148,-0.008 -0.089,0.14 -0.146,0.211 -0.011,0.013 -0.048,-0.008 -0.063,-0.014 -0.322,-0.144 -0.253,-0.056 -0.323,0.167 -0.011,0.035 -0.201,0.034 -0.224,0.037 -0.037,0.002 -0.056,0.004 -0.07,0.038 -0.035,0.233 -0.017,0.236 -0.206,0.366 -0.085,0.059 -0.076,0.092 -0.06,0.153 0.063,0.23 0.058,0.011 -0.051,0.313 -0.053,0.164 -0.024,0.313 0.089,0.436 0.073,0.067 0.263,-0.26 0.274,-0.157 0.019,0.127 0.022,0.109 0.062,0.204z"/><path class="fil0" d="M3.059 0.548l-0.048 0.043c0.281,0.545 0.38,1.343 -0.114,1.802 -0.204,0.189 -0.402,0.371 -0.613,0.569 -0.171,0.16 -0.374,0.548 -0.523,0.672 -0.169,-0.497 -0.698,-0.934 -0.936,-1.279 -0.076,-0.111 -0.239,-0.303 -0.276,-0.426l-0.098 0.033c0.082,0.207 0.391,0.719 0.617,0.962 0.277,0.298 0.601,0.873 0.7,0.928 0.13,-0.056 0.095,-0.122 0.19,-0.255 0.325,-0.635 1.077,-1.067 1.267,-1.435 0.124,-0.188 0.156,-0.303 0.176,-0.44l0.005 -0.043c0.017,-0.44 -0.211,-0.947 -0.348,-1.13z"/><path class="fil0" d="M1.105 1.299c-0.054,0.054 -0.04,0.124 0.024,0.16 0.153,0.059 0.193,-0.003 0.17,-0.164 -0.025,-0.085 -0.149,-0.05 -0.194,0.004z"/><path class="fil0" d="M2.42 1.953c-0.073,0.198 -0.1,0.353 -0.348,0.465 -0.319,0.145 -0.491,-0.083 -0.674,-0.227 -0.082,-0.062 -0.191,0.048 -0.153,0.107 0.097,0.096 0.059,-0.029 0.155,0.041 0.051,0.026 0.292,0.293 0.642,0.201 0.289,-0.076 0.425,-0.41 0.491,-0.473 0.029,-0.053 0.15,0.005 0.104,-0.058 -0.038,-0.053 -0.064,-0.086 -0.106,-0.108 -0.055,-0.028 -0.096,0.006 -0.113,0.052z"/><path class="fil0" d="M1.05 1.797c-0.049,-0.168 -0.173,-0.304 -0.096,-0.498 0.083,-0.208 0.228,-0.145 0.354,-0.256 -0.296,-0.26 -0.737,0.514 -0.258,0.754z"/><path class="fil0" d="M2.445 0.844c0.104,-0.027 0.126,-0.143 0.252,-0.071 0.394,0.267 0.169,0.568 0.215,0.505 0.346,-0.357 -0.459,-0.875 -0.467,-0.433z"/></g><text x="0" y="18.852" fill="#000000" font-size="5px" font-weight="bold" font-family="'Helvetica Neue', Helvetica, Arial-Unicode, Arial, Sans-serif">Created by Valeriia Vlasovtseva</text><text x="0" y="23.852" fill="#000000" font-size="5px" font-weight="bold" font-family="'Helvetica Neue', Helvetica, Arial-Unicode, Arial, Sans-serif">from the Noun Project</text></svg>