<svg xmlns="http://www.w3.org/2000/svg" xmlns:xlink="http://www.w3.org/1999/xlink" xml:space="preserve" version="1.1" style="shape-rendering:geometricPrecision;text-rendering:geometricPrecision;image-rendering:optimizeQuality;" viewBox="0 0 12.717 5.5625" x="0px" y="0px" fill-rule="evenodd" clip-rule="evenodd"><g><path class="fil0" d="M10.578 4.275c-0.045,-0.081 -0.014,-0.131 0.076,-0.212 0.137,-0.081 0.038,0.085 0.207,0.114 0.054,-0.093 -0.057,-0.136 0.013,-0.166 0.113,-0.056 0.127,0.109 0.211,0.09 0.074,-0.133 -0.106,-0.177 0.05,-0.426l0.5 -0.006c0.015,0.31 -0.049,0.474 -0.327,0.588 -0.203,0.083 -0.652,0.143 -0.729,0.018zm-6.045 -0.721l0.571 0.047c-0.003,0.145 -0.002,0.388 -0.089,0.491 -0.14,0.145 -0.818,0.098 -1.007,0.011 -0.058,-0.086 -0.009,-0.18 0.116,-0.23 0.123,-0.022 0.023,0.037 0.128,0.112 0.057,-0.077 -0.048,-0.128 0.068,-0.168 0.122,-0.032 -0.01,0.083 0.14,0.131 0.056,-0.113 -0.033,-0.078 0.007,-0.173 0.013,-0.064 0.053,-0.141 0.066,-0.22zm6.373 -0.307c0.098,0.009 0.113,-0.036 0.114,0.16 0.004,0.034 0.001,0.149 -0.001,0.189 -0.017,0.475 -0.232,0.244 -0.446,0.386 -0.123,0.082 -0.092,0.161 -0.236,0.016 -0.054,-0.101 -0.005,-0.185 0.114,-0.185 0.164,-0.005 0.065,0.104 0.225,0.079 0.036,-0.073 -0.099,-0.126 -0.042,-0.151 0.177,-0.079 0.141,0.051 0.249,0.061 0.007,-0.047 -0.04,-0.376 0.022,-0.555zm-6.506 0.417c-0.117,0.073 -0.178,0.04 -0.304,0.104 -0.163,0.082 -0.113,0.157 -0.224,0.258 -0.146,-0.053 -0.184,-0.1 -0.16,-0.245 0.017,-0.043 0.076,-0.084 0.113,-0.097 0.093,-0.021 0.015,0.133 0.135,0.139 0.09,-0.158 -0.135,-0.139 0.004,-0.197 0.194,-0.098 0.054,0.02 0.212,0.043 0.013,-0.098 -0.004,-0.349 0.012,-0.465 0.209,0.005 0.304,0.098 0.213,0.46zm6.632 -0.734c0.002,0.153 0.034,0.261 -0.131,0.225 -0.059,-0.083 -0.044,-0.236 -0.028,-0.363l0.159 0.137zm-6.583 0.173c-0.054,-0.138 -0.132,-0.145 -0.086,-0.256 0.081,-0.105 0.598,-0.003 0.827,0.053l-0.076 0.603 -0.567 -0.051c-0.082,-0.129 -0.039,-0.199 -0.098,-0.35zm-0.095 0.017l-0.149 -0.005 -0.057 -0.332c0.097,0.079 0.175,0.21 0.206,0.336zm0.675 -1.97l0.528 0.033c0.069,0.165 0.084,1.273 0.05,1.485 -0.216,0.121 -0.37,0.036 -0.626,0.008l0.048 -1.526zm2.077 0.075l0.102 1.38 -0.715 0.03 -0.063 -1.416 0.676 0.005zm0.104 -0.023l0.501 -0.001c0.083,0.385 0.131,0.996 0.104,1.402l-0.517 -0.009 -0.088 -1.392zm-0.792 1.432l-0.715 0.025c-0.019,-0.381 -0.083,-1.12 -0.017,-1.466l0.657 0.031c0.016,0.37 0.119,1.091 0.076,1.41zm-2.091 -1.598l0.616 0.089 -0.04 1.536 -0.537 -0.042 -0.039 -1.583zm6.753 0.45c0.733,0.239 1.415,1.158 1.394,1.961l-0.782 -1.101 -0.026 1.199 -0.571 0.018 -0.001 -0.692c-0.506,-0.546 -2.322,-0.229 -3.049,-0.278l-0.108 -1.399c0.967,0.008 2.223,-0.009 3.144,0.291zm-6.91 1.125c-0.039,-0.059 -0.038,-0.032 -0.033,-0.195 0.021,-0.762 -0.072,-0.958 -0.083,-1.229 -0.001,-0.063 0.002,-0.145 0.02,-0.157l0.143 0.021c0.045,0.122 0.06,0.646 0.063,0.809 0.003,0.155 0.005,0.289 0.002,0.444 -0.004,0.222 0.056,0.265 -0.112,0.307zm-2.36 -1.045c-0.13,-0.053 -0.852,0.291 -1.126,0.275 -0.641,0.05 -0.171,-0.476 0.159,-0.658 0.55,-0.303 1.406,-0.788 1.955,-0.979l0.769 0.642c0.033,0.147 0.064,0.835 0.031,0.964 -0.042,0.165 -0.2,0.148 -0.119,0.369 0.048,0.132 0.213,0.176 0.328,0.092 0.233,-0.17 -0.09,-0.408 -0.094,-0.777 -0.003,-0.28 -0.121,-0.734 0.159,-0.807 0.167,0.295 0.504,2.489 -0.385,2.352 -0.945,-0.146 -0.238,-2.156 -0.379,-2.421l-0.187 1.179c-0.601,0.031 -1.231,0.102 -1.804,0.094 -0.043,-0.004 -0.048,-0.035 -0.01,-0.057l0.702 -0.267zm1.991 -1.102c-0.028,0.612 -0.768,-0.082 -0.8,-0.335 0.401,-0.079 0.142,0.582 0.8,0.335zm-0.506 -0.374c0.713,0.051 0.335,0.786 0,0zm0.748 0.867c-0.37,-0.764 -0.291,-1.253 -1.453,-0.758 -0.395,0.168 -1.731,0.837 -2.087,1.125 -0.259,0.21 -0.275,-0.085 -0.451,0.097 -0.242,0.252 0.435,0.509 0.606,0.492 0.496,-0.05 0.483,0.101 1.085,0.024 0.267,-0.034 0.984,-0.104 1.15,-0.044 0.129,0.053 -0.109,0.752 0.29,1.073 0.389,0.313 0.584,0.124 0.889,-0.149l0.033 0.632c-1.245,0.483 0.113,0.985 0.876,0.801 0.093,-0.022 0.119,-0.032 0.136,-0.1 0.114,-0.468 -0.052,-1.261 0.428,-1.362 0.335,-0.07 1.297,-0.113 1.665,-0.109 0.752,0.009 2.959,-0.15 3.552,0.094l0.049 0.756c-0.014,0.084 -0.537,0.151 -0.571,0.298 -0.057,0.254 0.032,0.216 0.152,0.339 0.122,0.125 0.012,0.176 0.261,0.256 0.237,0.076 0.654,-0.02 0.853,-0.138 0.429,-0.255 0.206,-1.179 0.276,-1.673 0.242,0.199 0.641,1.119 0.935,1.115 -0.072,-0.527 -0.544,-1.555 -0.939,-1.943 -0.459,-0.452 -1.622,-0.593 -2.249,-0.623 -0.948,-0.045 -1.862,-0.022 -2.808,-0.005 -0.949,0.017 -1.827,-0.192 -2.679,-0.197z"/><path class="fil0" d="M2.22 1.016c0.117,0.071 0.187,-0.008 0.117,-0.117 -0.092,-0.08 -0.206,0.01 -0.117,0.117z"/></g><text x="0" y="19.45" fill="#000000" font-size="5px" font-weight="bold" font-family="'Helvetica Neue', Helvetica, Arial-Unicode, Arial, Sans-serif">Created by Valeriia Vlasovtseva</text><text x="0" y="24.45" fill="#000000" font-size="5px" font-weight="bold" font-family="'Helvetica Neue', Helvetica, Arial-Unicode, Arial, Sans-serif">from the Noun Project</text></svg>