<svg xmlns="http://www.w3.org/2000/svg" xmlns:xlink="http://www.w3.org/1999/xlink" xml:space="preserve" version="1.1" style="shape-rendering:geometricPrecision;text-rendering:geometricPrecision;image-rendering:optimizeQuality;" viewBox="0 0 70.588 70.73125" x="0px" y="0px" fill-rule="evenodd" clip-rule="evenodd"><g><path class="fil0" d="M2.413 33.794c4.293,-2.781 6.021,-3.921 8.078,-9.02 1.725,-4.277 2.812,-7.609 7.314,-9.418l0.07 2.603 -0.725 -1.282c-1.881,1.912 -1.349,5.678 -1.26,8.241l-0.597 -1.946c-1.203,0.369 -1.138,10.633 -5.328,12.835l0.26 -1.706c-2.197,-0.629 -5.334,1.64 -7.813,-0.307zm40.624 -21.982c1.809,-1 8.817,-0.115 13.096,-2.75 -0.217,1.58 -4.284,7.696 -5.53,9.046 -2.237,2.423 -4.841,5.228 -8.466,6.159l3.538 -3.891c-1.821,0.308 -0.825,1.463 -4.445,1.133 -1.046,-0.095 -3.146,-0.73 -3.729,-1.585 1.361,-0.777 4.724,-1.008 6.243,-2.697l-4.608 -1.298c0.957,-1.564 7.541,-2.939 7.824,-3.908l-3.923 -0.21zm26.655 -3.764c0.193,0.638 0.371,0.601 -0.36,0.828l0.36 -0.828zm-4.585 -4.309c0.027,-0.175 0.393,-0.189 0.934,0.025 -0.64,2.043 -1.694,3.587 -4.183,3.347 0.416,-0.855 1.165,-1.003 1.668,-1.821 0.475,-0.774 0.374,-1.284 0.979,-1.682 0.633,1.159 -0.543,1.739 -0.847,2.623 1.111,-0.15 1.305,-1.475 1.45,-2.492zm1.189 -0.521c-0.051,-0.769 0.373,-1.493 0.892,-2.065 0.46,0.677 0.524,1.6 0.388,2.58 -0.728,-0.212 -0.198,-0.843 -0.42,-1.114 -0.438,-0.028 -0.204,0.767 -0.86,0.6zm-4.707 0.376c-0.209,-1.293 -0.057,-1.811 0.677,-2.818 0.748,0.418 0.991,1.459 1.23,2.25 -1.013,0.18 -0.353,-0.254 -1.102,-0.581 -0.493,0.872 0.181,0.735 -0.804,1.148zm-51.384 20.049c-0.46,1.907 -2.256,5.064 -3.631,6.395 -3.493,3.381 -5.372,2.614 -6.576,3.318 1.617,2.782 6.092,2.172 8.721,1.621l-0.874 2.519c4.956,-0.181 6.816,-6.641 7.447,-10.911l1.363 1.517c0.441,-0.588 -0.963,-7.006 0.241,-10.145 1.363,1.52 0.97,6.619 1.147,8.91 0.027,3.579 0.323,6.38 0.647,9.531 0.368,3.586 0.354,6.431 0.46,9.947 0.048,1.576 -0.188,5.692 0.565,7.813 0.518,1.458 1.165,1.581 1.715,0.072 1.19,-3.262 0.079,-11.561 2.185,-14.979 -0.121,0.038 -0.234,0.11 -0.341,0.21 -1.516,1.839 -1.582,11.219 -1.864,13.49 -0.053,0.404 -1.328,0.696 -1.492,0.279 -0.92,-3.671 -0.289,-13.042 -0.887,-17.812 -0.811,-6.478 -0.516,-10.723 -0.498,-16.891 0.011,-3.607 -0.88,-4.315 1.819,-7.391 1.716,-1.956 4.748,-2.01 7.216,-2.207 6.162,-0.492 10.841,1.634 16.958,1.92 -0.997,0.159 -2.396,0.21 -2.933,1.051l1.989 0.711c-1.454,0.534 -5.184,2.203 -5.619,3.525l3.951 1.529c-3.182,1.71 -4.519,1.169 -6.075,1.34 0.493,2.28 4.914,2.908 6.928,3.171l-1.436 2.901c2.354,1.079 10.827,-7.317 12.256,-9.578 2.678,-4.24 4.61,-10.38 9.949,-11.846 -0.109,1.882 -2.311,2.882 -2.778,3.72 3.227,1.375 4.808,-1.541 5.969,-3.44 1.656,0.655 2.628,2.347 2.964,4.114 -0.658,0.301 -1.606,0.729 -0.926,2.076 0.586,0.397 1.161,-1.07 1.191,-0.839 0.347,2.173 0.086,6.71 -1.047,8.553 -0.529,0.592 -1.587,-0.231 -2.189,-0.643 -2.415,-1.653 -2.937,-5.969 -3.56,-6.716 -0.729,1.484 0.355,3.736 1.278,4.98 -0.565,0.498 -1.149,0.377 -1.912,1.144 -7.025,7.055 -4.191,9.003 -5.651,17.186 -0.898,5.034 -2.763,10.382 -4.018,15.463 -0.32,1.297 -0.633,5.911 -1.812,4.891 -1.347,-1.749 0.595,-11.242 -0.575,-15.209 -0.626,-2.125 -1.79,-1.911 -2.816,-0.196 -1.095,1.831 -1.061,4.73 -1.396,6.615 -0.369,2.078 -1.19,4.883 -1.361,6.867 -0.117,1.36 0.156,3.046 -0.862,2.222 -0.542,-0.24 -0.411,-10.359 -0.814,-12.102 -0.841,-3.634 -4.611,-5.657 -7.074,-3.833 -0.146,0.108 -0.172,0.243 -0.26,0.424 0.752,-0.659 2.812,-1.569 4.897,0.012 4.048,3.07 1.701,12.709 2.546,16.511 0.227,0.833 1.092,1.255 1.68,0.517 0.513,-0.645 0.248,-2.058 0.257,-2.923 0.018,-1.654 0.67,-3.781 1.015,-5.467 0.344,-1.681 0.576,-6.371 1.811,-8.587 0.958,-1.719 1.629,-1.42 1.949,0.336 0.615,3.366 0.083,10.606 0.14,12.915 0.006,1.632 -0.248,2.426 -0.25,2.995 -0.003,0.966 1.03,1.799 1.895,1.062 0.447,-0.381 1.116,-5.35 1.342,-6.53 1.601,-6.245 3.725,-12.242 4.525,-18.551 0.217,-1.708 0.12,-6.014 0.335,-7.268 0.546,-2.606 2.947,-5.044 4.047,-6.278 2.971,-3.789 3.803,1.326 6.455,1.199 1.727,-0.532 3.446,-9.946 0.316,-13.813 -1.577,-1.948 -0.121,-2.975 -1.435,-4.612 -1.564,0.527 -0.92,2.929 -2.853,2.6 -1.26,-0.214 -0.82,-2.48 -2.518,-3.05 -0.899,1.782 -0.865,1.759 -0.973,3.676 -0.063,1.112 -1.463,1.746 -2.248,2.504 -2.488,2.402 -3.362,2.646 -6.771,3.297 -9.266,1.769 -8.888,0.687 -17.486,-0.556 -4.919,-0.711 -12.679,-1.362 -15.634,3.478 -1.036,1.698 -0.274,1.648 -2.181,2.741 -5.213,2.986 -4.429,4.662 -6.543,8.505z"/><path class="fil0" d="M35.89 38.932c0.061,-0.135 0.26,-0.424 0.26,-0.424 -0.554,0.391 -2.09,1.878 -2.465,2.424 -1.854,2.698 -3.098,8.596 -3.116,11.24 -0.009,1.341 0.229,1.448 -0.927,1.459 -0.648,-0.017 -0.192,-6.282 -0.54,-10.377 -0.173,-1.318 -0.533,-2.954 -1.377,-3.994 -0.989,-1.221 -2.734,-1.305 -3.504,-0.753 -0.289,0.188 -0.811,0.683 -0.951,0.962 0.099,-0.092 0.252,-0.116 0.347,-0.216 1.385,-1.453 3.063,-0.994 4.111,0.662 1.914,3.026 0.557,14.956 1.625,15.64 1.75,0.66 1.585,-2.192 1.615,-3.394 0.052,-2.062 0.4,-2.941 0.718,-4.869 0.643,-3.9 1.556,-5.599 4.204,-8.359z"/><path class="fil0" d="M40.502 20.276c0.332,0.338 0.667,0.405 0.942,0.395 3.194,-0.137 9.666,-6.18 10.274,-7.909 -1.091,0.203 -1.745,1.462 -2.435,2.243 -2.504,2.833 -4.899,4.641 -8.781,5.272z"/><path class="fil0" d="M5.479 33.745c1.189,-0.12 3.195,-1.937 3.974,-2.838 1.039,-1.202 1.422,-2.074 2.142,-3.246 0.301,-0.568 0.247,-0.498 0.339,-1.101 -0.859,0.235 -1.713,3.477 -4.55,5.623 -0.632,0.478 -1.697,0.855 -1.905,1.562z"/><path class="fil0" d="M42.984 15.56c0.115,0.123 0.615,0.738 1.877,-0.054 1.608,-0.812 4.112,-1.988 4.767,-3.517 -1.695,0.56 -2.249,2.657 -6.645,3.571z"/><path class="fil0" d="M12.819 23.696c0.92,-0.344 0.974,-1.997 1.297,-2.914 0.377,-1.072 1.109,-2.086 1.378,-2.969 -1.33,0.464 -2.625,5.227 -2.675,5.883z"/><path class="fil0" d="M65.232 8.793c-0.424,0.108 -0.582,-0.222 -0.84,-0.158 0.046,0.552 0.309,1.254 0.767,1.496 0.631,0.256 0.963,0.284 1.217,-0.17 0.345,-1.153 0.118,-0.899 -1.01,-2.217 -0.295,0.354 -0.445,0.599 -0.133,1.05z"/><path class="fil0" d="M10.79 32.985c0.621,-0.558 1.579,-3.08 1.176,-3.775l-1.166 2.844c-0.08,0.334 -0.209,0.5 -0.01,0.931z"/><path class="fil0" d="M51.48 15.078c0.909,-0.52 1.972,-2.107 2.082,-3.185 -0.817,0.315 -1.759,2.302 -2.082,3.185z"/><path class="fil0" d="M46.649 20.749c0.871,-0.372 1.927,-1.134 2.18,-2.006 -0.752,0.208 -2.096,1.217 -2.18,2.006z"/><path class="fil0" d="M67.036 15.854c0.519,0.552 0.902,-0.044 0.396,-0.443 -0.409,-0.24 -0.648,0.054 -0.396,0.443z"/><path class="fil0" d="M69.376 15.762c-0.44,0.617 -0.885,0.091 -0.44,-0.374 0.37,-0.295 0.639,-0.044 0.44,0.374z"/></g><text x="0" y="71.58500000000001" fill="#000000" font-size="5px" font-weight="bold" font-family="'Helvetica Neue', Helvetica, Arial-Unicode, Arial, Sans-serif">Created by Valeriia Vlasovtseva</text><text x="0" y="76.58500000000001" fill="#000000" font-size="5px" font-weight="bold" font-family="'Helvetica Neue', Helvetica, Arial-Unicode, Arial, Sans-serif">from the Noun Project</text></svg>