<svg xmlns="http://www.w3.org/2000/svg" xmlns:xlink="http://www.w3.org/1999/xlink" xml:space="preserve" version="1.1" style="shape-rendering:geometricPrecision;text-rendering:geometricPrecision;image-rendering:optimizeQuality;" viewBox="0 0 14.683 32.95" x="0px" y="0px" fill-rule="evenodd" clip-rule="evenodd"><g><path class="fil0" d="M2.152 6.924l0.377 0.481c0.05,0.061 -0.013,0.088 -0.345,0.185 -0.06,0.018 -0.3,0.053 -0.362,0.059 -0.283,0.029 -0.538,0.026 -0.821,0.028 0.183,-0.217 0.309,-0.329 0.497,-0.485 0.451,-0.377 0.51,-0.403 0.654,-0.268zm-0.767 11.425c-0.008,0.212 -0.676,0.086 -0.848,0.012 -0.138,-0.053 -0.259,-0.003 -0.213,-0.221 0.049,-0.189 0.101,-0.146 0.252,-0.126 0.581,0.059 0.829,0.115 0.809,0.334zm0.97 -10.383l-0.281 0.43 -0.89 -0.407 0.993 -0.18c0.221,-0.061 0.45,-0.131 0.324,0.005l-0.146 0.152zm0.205 4.951c0.065,0.267 0.057,0.593 -0.154,0.843 -0.153,0.181 -0.19,0.178 -0.377,0.041 -0.423,-0.31 -0.265,-0.78 0.094,-1.058 0.302,-0.234 0.348,-0.187 0.437,0.175zm-1.695 3.238l0.78 -2.09c0.119,-0.033 0.323,-0.041 0.58,0.047l-0.824 3.8 -0.993 -0.169 0.456 -1.587zm1.503 -9.44c1.997,-1.706 5.452,0.875 5.36,2.199 -0.053,0.762 -1.556,2.182 -2.004,2.389 -0.932,0.431 -2.1,1.15 -2.993,1.044 -0.119,-1.034 -0.226,-1.936 -0.355,-2.945 -0.026,-0.205 -0.078,-0.542 -0.057,-0.774 0.074,-0.79 0.985,-0.525 0.048,-1.914zm1.686 -2.636c0.427,-0.207 1.337,-0.196 1.75,0.179l-0.445 -0.011c-0.73,-0.136 -0.539,-0.028 -1.001,-0.047 -0.303,-0.013 -0.334,-0.028 -0.304,-0.121zm0.299 -0.534c0.469,-0.366 1.193,-0.054 1.38,0.315l-1.118 -0.146c-0.255,-0.028 -0.39,-0.054 -0.262,-0.169zm-0.855 1.725c0.218,-0.258 0.816,-0.293 1.25,-0.249 0.455,0.046 1.041,0.091 1.162,0.517 -0.479,-0.088 -2.302,-0.185 -2.412,-0.268zm2.096 -4.942c0.311,0.168 0.51,0.683 0.152,0.876 -0.84,0.364 -1.104,-0.288 -0.735,-0.735 0.198,-0.24 0.317,-0.284 0.583,-0.141zm-2.99 19.811c-0.085,0.169 -0.536,0.08 -1.021,0.05 0.149,-0.385 0.057,-0.275 0.464,-0.302 0.781,-0.066 0.581,0.075 0.557,0.252zm2.995 -17.551c0.08,0.114 0.112,0.105 -0.323,0.028 -0.225,-0.039 -0.37,-0.071 -0.285,-0.13 0.278,-0.173 0.331,-0.178 0.608,0.103zm-1.837 2.214c0.108,-0.369 0.033,-0.278 0.49,-0.346 0.58,-0.087 1.449,-0.131 1.641,0.489 -0.943,-0.092 -1.216,-0.17 -2.131,-0.143zm1.443 -2.77c0.098,-0.429 0.215,-0.323 0.267,-0.306 0.101,0.045 0.185,0.492 0.067,0.461 -0.297,-0.045 -0.354,0.029 -0.334,-0.155zm-0.548 1.048c0.176,-0.228 0.223,-0.252 0.36,-0.26 0.457,-0.055 0.676,0.193 0.691,0.569l-1.051 -0.309zm-1.349 2.744c0.246,-0.289 0.753,-0.261 1.458,-0.217 1.392,0.086 1.191,0.382 1.179,0.803 -1.333,-0.467 -2.354,-0.419 -2.636,-0.586zm0.271 6.684c1.778,-0.545 3.334,-1.499 4.265,-3.267 1.044,0.3 -1.568,2.757 -1.788,2.959 -0.612,0.563 -2.435,1.328 -3.253,1.356l-0.036 -0.813c0.269,-0.145 0.491,-0.137 0.811,-0.235zm3.688 7.145c0.105,-0.019 0.348,-0.006 0.433,0.043 0.207,0.12 0.094,0.558 0,1.372l-0.402 -0.015c-0.148,-0.448 -0.204,-0.97 -0.031,-1.4zm0.167 2.057c-0.374,0.033 -0.246,-0.078 -0.265,-0.162 0.002,-0.208 -0.09,-0.228 0.307,-0.205 0.336,0.014 0.272,-0.027 0.258,0.184 -0.014,0.263 0.053,0.177 -0.3,0.184zm-1.577 3.411c-0.17,0.211 -0.245,0.361 -0.656,0.441 -0.231,0.045 -0.288,0.044 -0.184,-0.198 0.155,-0.36 0.535,-0.592 0.806,-0.845 0.23,-0.205 0.338,-0.253 0.535,-0.373 0.353,-0.195 0.32,-0.097 0.474,-0.447 -0.502,0.037 -1.562,0.492 -1.997,0.83 -0.343,0.266 -0.228,0.279 -0.486,0.294 -0.214,0.012 -0.188,-0.066 -0.11,-0.246 0.438,-1.017 1.796,-0.554 2.398,-1.25 -0.491,-0.396 -1.574,0.264 -2.15,0.166 -0.204,-0.035 -0.277,-0.087 -0.093,-0.222 0.483,-0.355 1.759,-0.396 2.463,-0.378 0.158,0.004 0.22,-0.024 0.243,-0.201l0.104 -0.736 0.486 0.08c0.211,0.939 0.078,1.202 -0.512,1.856 -0.356,0.396 -1.102,0.795 -1.319,1.23zm4.58 -5.213c0.185,0.38 0.069,0.726 0.068,1.192l-0.621 0.044c-0.066,-0.466 -0.198,-0.902 -0.026,-1.137 0.077,-0.104 0.384,-0.102 0.579,-0.099zm0.171 2.093l-0.75 0.07c-0.056,-0.358 -0.013,-0.375 0.063,-0.683l0.628 -0 0.059 0.613zm0.017 0.304c-0.072,0.964 0.127,1.127 -0.272,2.104 -0.179,0.439 -0.422,1.105 -0.735,1.463 -0.115,0.132 -0.128,0.095 -0.184,-0.059 -0.162,-0.443 0.512,-1.012 0.585,-1.669 -0.381,0.047 -1.332,1.02 -1.761,1.494 -0.17,0.188 -0.217,0.272 -0.12,-0.065 0.249,-0.862 1.354,-1.005 1.444,-1.705 -0.486,0.102 -1.773,0.743 -1.873,0.531 -0.163,-0.399 1.331,-0.647 2.206,-0.897l-0.048 -1.164 0.759 -0.035zm-7.7 -8.483c0.648,-0.118 1.124,-0.396 1.67,-0.589 2.33,-0.822 2.713,-2.197 3.595,-3.258 0.538,0.93 0.662,1.601 1.623,2.238 0.741,0.491 2.324,0.756 3.067,0.368 -0.04,-0.294 -0.196,-0.49 -0.246,-0.97 -0.033,-0.312 -0.022,-0.656 0.016,-0.998 0.063,-0.571 0.215,-0.153 0.317,0.262 0.195,0.813 0.018,1.306 0.218,1.624 0.431,-0.672 -0.172,-1.777 0.307,-2.512 0.11,-0.169 0.124,-0.19 0.2,0.006 0.319,0.824 -0.527,2.282 0.114,2.819 0.343,-0.804 0.231,-1.78 0.443,-2.64 0.088,-0.36 0.08,-0.288 0.078,0.02l-0.034 5.096c-0.474,4.309 -4.142,4.993 -7.667,3.774 -2.407,-0.832 -2.867,-2.553 -3.063,-2.856 -0.2,-0.253 -0.658,-2.037 -0.636,-2.385zm-2.221 2.301l-0.456 1.522c-0.136,0.47 -0.303,1.175 -0.229,1.541 0.032,0.081 0.105,-0.012 0.181,-0.457 0.033,-0.115 0.275,-0.192 0.267,-0.113 0.044,0.315 -0.179,0.97 -0.009,0.934 0.417,-0.436 -0.038,-0.656 0.477,-0.939 0.144,0.289 0.047,0.561 0.005,0.91 0.498,-0.036 0.464,-0.135 0.484,-0.231l0.457 -2.479c0.254,-0.71 0.027,-1.489 0.709,-2.465 0.533,1.241 0.408,3.746 0.083,5.279l-0.946 0.017 0.283 -2.831c-0.088,-0.072 -0.227,1.003 -0.28,1.476 -0.331,2.11 0.041,0.945 -0.755,2.586 0.242,-0.04 0.26,-0.049 0.483,-0.306 0.114,-0.087 -0.072,0.389 0.105,0.452 0.124,0.037 0.31,-0.692 0.384,-0.573 0.059,0.078 0.002,0.54 0.106,0.529 0.372,-0.103 0.036,-0.443 0.17,-0.506 0.052,-0.032 0.186,-0.041 0.207,0.002 0.052,0.476 -0.169,0.308 0.187,0.523 0.313,-1.641 0.498,-3.296 0.515,-4.921 -0.003,-0.141 0.056,-0.099 0.153,0.06 0.178,0.392 0.884,1.622 1.363,2.048 1.241,1.106 1.838,0.941 2.359,1.35 -0.037,0.938 0.089,2.167 -0.091,3.022 -0.789,0.399 -2.329,-0.03 -2.75,0.691 -0.14,0.24 -0.158,0.356 0.103,0.442 0.309,0.102 0.535,-0.024 0.975,-0.036 -0.385,0.29 -0.992,0.393 -1.168,0.888 -0.094,0.262 -0.099,0.447 0.227,0.445 0.394,-0.002 0.748,-0.457 1.329,-0.607 -0.153,0.2 -0.318,0.375 -0.505,0.57 -0.729,0.698 -0.286,0.762 -0.233,0.797 0.598,0.251 1.112,-0.573 1.61,-0.976 0.28,-0.214 0.342,-0.258 0.569,-0.463 0.292,-0.263 0.801,-0.724 0.878,-1.084 0.129,-0.606 -0.065,-2.666 0.012,-3.544l1.622 0.27 0.093 3.308c-0.323,0.277 -0.905,0.268 -1.336,0.444 -0.27,0.11 -0.676,0.296 -0.811,0.577 -0.107,0.22 -0.05,0.302 0.153,0.386 0.412,0.17 0.643,-0.134 1.06,-0.271l-0.809 1.163c-0.385,0.976 0.362,0.51 0.777,-0.067 0.235,-0.279 0.519,-0.481 0.769,-0.634 -0.178,0.492 -0.367,0.918 -0.236,1.353 0.188,0.354 0.453,0.046 0.683,-0.411 0.336,-0.666 0.972,-1.898 0.932,-2.519l-0.184 -3.599c1.919,-0.242 3.245,-1.452 3.72,-3.684 0.214,-1.004 0.482,-5.614 0.085,-6.314 -0.249,-0.309 -0.242,-0.096 -0.477,0.352 -0.158,-0.298 -0.134,-0.533 -0.54,-0.474 -0.196,0.166 -0.24,0.937 -0.325,0.798 -0.128,-0.232 -0.149,-0.313 -0.42,-0.351 -0.128,-0.018 -0.157,0.04 -0.208,0.188 -0.279,0.814 -0.057,1.449 0.031,2.231 -0.824,-0.006 -1.289,0.211 -2.194,-0.192 -1.761,-0.785 -1.774,-2.693 -2.671,-4.095 -0.364,-0.569 -0.503,-0.784 -1.125,-1.3 -0.891,-0.739 -0.066,-2.732 -0.924,-5.294 -0.054,-0.141 0.437,-0.052 0.443,-0.728 0.011,-0.9 -1.453,-1.398 -1.425,0.399 0.003,0.247 0.628,0.177 0.537,0.371 -0.398,1.205 -1.411,2.456 -1.947,3.697 -0.478,1.105 -0.562,0.863 -1.342,1.337 -0.488,0.296 -1.246,0.805 -1.387,1.353l1.551 0.74 0.43 3.517c-1.165,0.82 -0.571,0.414 -1.007,1.805 -0.217,0.693 -0.491,1.256 -0.776,2.092z"/><path class="fil0" d="M11.389 14.325c0.457,0.222 0.941,0.575 1.335,0.917 -0.19,0.398 -1.045,1.185 -1.598,1.336l0.263 -2.253zm-4.421 0.416c0.415,-0.239 0.115,-0.092 0.753,-0.629 1.06,-0.834 2.211,-0.68 3.36,-0.003 0.106,0.709 0.053,1.395 -0.151,2.12 -0.386,1.372 -3.182,1.456 -4.338,0.873 -0.408,-0.206 -0.5,-0.369 -0.898,-0.542 0.356,1.467 3.679,1.534 5.972,0.009 0.257,-0.171 0.467,-0.385 0.749,-0.634 0.243,-0.214 0.538,-0.407 0.659,-0.75 -0.616,-0.697 -3.214,-2.46 -4.949,-1.63 -0.55,0.263 -0.957,0.587 -1.156,1.187z"/><path class="fil0" d="M3.625 6.836c0.207,0.008 0.128,0.117 -0.05,0.151 -0.394,0.074 -0.041,-0.154 0.05,-0.151zm-0.232 -0.239c-0.318,-0.035 -0.481,0.484 -0.162,0.731 0.507,0.394 0.441,0.027 1.149,0.085 -0.076,-0.266 -0.034,-0.186 -0.27,-0.361 0.307,-0.099 0.315,-0.079 0.521,-0.198 -0.412,-0.086 -0.824,-0.256 -1.237,-0.257z"/></g><text x="0" y="41.36" fill="#000000" font-size="5px" font-weight="bold" font-family="'Helvetica Neue', Helvetica, Arial-Unicode, Arial, Sans-serif">Created by Valeriia Vlasovtseva</text><text x="0" y="46.36" fill="#000000" font-size="5px" font-weight="bold" font-family="'Helvetica Neue', Helvetica, Arial-Unicode, Arial, Sans-serif">from the Noun Project</text></svg>